<svg width="150" height="50" viewBox="0 0 150 50" fill="none" xmlns="http://www.w3.org/2000/svg">
<g clip-path="url(#clip0_20_783)">
<path d="M43.8795 38.0186C42.8545 37.6506 42.6603 37.4053 42.6603 36.9832C42.6603 36.5611 42.9552 36.2256 43.6565 36.2256C44.1708 36.2256 44.5124 36.3951 44.8865 36.7054L45.2533 36.2544C44.8217 35.9081 44.383 35.7061 43.6925 35.7061C42.7358 35.7061 42.0885 36.1967 42.0885 37.0193C42.0885 37.7625 42.4625 38.1233 43.5702 38.5201C44.5088 38.8592 44.793 39.1298 44.793 39.606C44.793 40.1508 44.3686 40.49 43.6889 40.49C43.1602 40.49 42.7143 40.2446 42.3259 39.873L41.9482 40.2987C42.351 40.71 42.9732 41.0131 43.6709 41.0131C44.739 41.0131 45.3684 40.3853 45.3684 39.5808C45.3684 38.7763 45.0195 38.4335 43.8831 38.0222L43.8795 38.0186Z" fill="white"/>
<path d="M47.6913 36.9935C47.1914 36.9935 46.7383 37.1162 46.4002 37.3002L46.6088 37.7476C46.9217 37.5636 47.2526 37.4517 47.6554 37.4517C48.2164 37.4517 48.4897 37.7295 48.4897 38.3068V38.7614C48.2632 38.6351 47.9143 38.5377 47.5295 38.5377C46.7707 38.5377 46.0586 38.9057 46.0586 39.7715C46.0586 40.7023 46.688 41.0054 47.2849 41.0054C47.8388 41.0054 48.2164 40.7456 48.4897 40.4534V40.926H49.0364V38.2346C49.0364 37.3399 48.5185 36.9863 47.6913 36.9863V36.9935ZM48.4861 39.9844C48.2524 40.3055 47.8783 40.5616 47.382 40.5616C46.9109 40.5616 46.5944 40.3127 46.5944 39.7391C46.5944 39.2556 46.9325 38.9814 47.4971 38.9814C47.9647 38.9814 48.2344 39.068 48.4861 39.2051V39.988V39.9844Z" fill="white"/>
<path d="M54.553 38.6718V40.9302H55.0996V38.5816C55.0996 37.4559 54.6105 36.9941 53.8265 36.9941C53.2007 36.9941 52.8878 37.2864 52.6613 37.6544C52.4779 37.2864 52.1506 36.9941 51.6075 36.9941C51.1544 36.9941 50.8307 37.2142 50.6329 37.5461V37.0771H50.0791V40.9338H50.6329V38.6754C50.6329 37.8203 50.9602 37.4704 51.4889 37.4704C52.0175 37.4704 52.316 37.7915 52.316 38.6754V40.9338H52.8663V38.6754C52.8663 37.8203 53.2007 37.4704 53.7222 37.4704C54.276 37.4704 54.5494 37.7915 54.5494 38.6754L54.553 38.6718Z" fill="white"/>
<path d="M57.3045 38.6859C56.6535 38.39 56.4593 38.2638 56.4593 37.9355C56.4593 37.6541 56.6895 37.4592 57.0959 37.4592C57.5023 37.4592 57.754 37.5675 58.0525 37.8056L58.3582 37.3979C58.0669 37.1562 57.6569 36.9902 57.1318 36.9902C56.4305 36.9902 55.9307 37.3871 55.9307 37.9715C55.9307 38.5885 56.2507 38.823 57.0239 39.1549C57.7037 39.4471 57.9302 39.6239 57.9302 39.9414C57.9302 40.3166 57.6821 40.5367 57.1534 40.5367C56.7722 40.5367 56.4126 40.3815 56.1069 40.111L55.7832 40.5114C56.15 40.8072 56.6104 41.0057 57.139 41.0057C57.8044 41.0057 58.4553 40.6774 58.4553 39.9161C58.4553 39.227 58.0309 39.0142 57.3009 38.6823L57.3045 38.6859Z" fill="white"/>
<path d="M61.6638 39.3281C61.6638 40.1723 61.243 40.5295 60.7143 40.5295C60.0958 40.5295 59.8045 40.1579 59.8045 39.3281V37.0732H59.2578V39.4219C59.2578 40.5295 59.7937 41.0093 60.6028 41.0093C61.0883 41.0093 61.4444 40.782 61.6638 40.4573V40.9299H62.214V37.0732H61.6638V39.3281Z" fill="white"/>
<path d="M66.0975 40.9302V38.5816C66.0975 37.4704 65.5616 36.9941 64.7489 36.9941C64.2669 36.9941 63.9073 37.2214 63.6915 37.5461V37.0771H63.1377V40.9338H63.6915V38.6754C63.6915 37.8311 64.1051 37.4704 64.6374 37.4704C65.2523 37.4704 65.5472 37.8456 65.5472 38.6754V40.9338H66.0975V40.9302Z" fill="white"/>
<path d="M67.8271 41.9257L68.0033 42.3442C69.4311 42.3009 69.9489 41.7417 69.9489 40.58V37.0696H69.3987V37.5025C69.129 37.1923 68.7981 36.9902 68.3162 36.9902C67.5106 36.9902 66.8633 37.6937 66.8633 39.0611C66.8633 40.4284 67.4747 41.0057 68.2407 41.0057C68.7622 41.0057 69.129 40.7459 69.3987 40.4537V40.6521C69.3987 41.5504 69.1074 41.8896 67.8235 41.922L67.8271 41.9257ZM68.3845 40.5294C67.7768 40.5294 67.4099 40.0244 67.4099 39.0539C67.4099 38.0184 67.7228 37.4665 68.363 37.4665C68.8197 37.4665 69.1901 37.7226 69.4023 38.0437V39.9739C69.1326 40.313 68.7945 40.5294 68.3845 40.5294Z" fill="white"/>
<path d="M76.0128 38.3214C76.0128 36.5572 75.0202 35.7852 73.6752 35.7852H72.3193V40.9298H73.5745C74.9447 40.9298 76.0128 40.1866 76.0128 38.3214ZM72.8912 36.3047H73.632C74.8116 36.3047 75.441 37.0262 75.441 38.3395C75.441 39.8186 74.7505 40.4067 73.6464 40.4067H72.8912V36.3047Z" fill="white"/>
<path d="M77.477 37.55V37.0738H76.9268V40.9305H77.477V38.6648C77.477 37.9288 77.7791 37.4995 78.3149 37.4995C78.5703 37.4995 78.7357 37.5572 78.8904 37.6474L79.027 37.0918C78.8976 37.0341 78.7141 36.998 78.4264 36.998C78.0129 36.998 77.6496 37.247 77.477 37.5536V37.55Z" fill="white"/>
<path d="M82.3139 40.5625L82.0549 40.1657C81.7025 40.4002 81.44 40.5337 80.9904 40.5337C80.3647 40.5337 79.9727 40.0105 79.9223 39.1916H82.4829C82.5009 39.1014 82.5081 39.022 82.5081 38.8921C82.5081 37.7918 81.9614 36.998 80.9581 36.998C80.0446 36.998 79.3721 37.7593 79.3721 38.9823C79.3721 40.5012 80.228 41.0135 80.9329 41.0135C81.5119 41.0135 81.85 40.8584 82.3139 40.5661V40.5625ZM80.9581 37.4707C81.6306 37.4707 81.9542 37.9938 81.9974 38.7406H79.9223C79.987 37.8783 80.3862 37.4707 80.9581 37.4707Z" fill="white"/>
<path d="M84.3416 41.0093C84.8919 41.0093 85.2695 40.7495 85.5392 40.4573V40.9299H86.0895V38.2385C86.0895 37.3438 85.5716 36.9902 84.7444 36.9902C84.2445 36.9902 83.7914 37.1129 83.4533 37.2969L83.6583 37.7443C83.9748 37.5603 84.3021 37.4484 84.7049 37.4484C85.2695 37.4484 85.5392 37.7262 85.5392 38.3035V38.758C85.3127 38.6318 84.9674 38.5344 84.5826 38.5344C83.8202 38.5344 83.1045 38.9024 83.1045 39.7682C83.1045 40.699 83.7374 41.0021 84.338 41.0021L84.3416 41.0093ZM84.5538 38.9781C85.0213 38.9781 85.2947 39.0647 85.5428 39.2018V39.9847C85.3091 40.3058 84.935 40.5619 84.4387 40.5619C83.9712 40.5619 83.6511 40.313 83.6511 39.7394C83.6511 39.2559 83.9928 38.9817 84.5538 38.9817V38.9781Z" fill="white"/>
<path d="M91.6069 38.6718V40.9302H92.1572V38.5816C92.1572 37.4559 91.6681 36.9941 90.8841 36.9941C90.2619 36.9941 89.9454 37.2864 89.7224 37.6544C89.539 37.2864 89.2118 36.9941 88.6687 36.9941C88.212 36.9941 87.8919 37.2142 87.6941 37.5461V37.0771H87.1475V40.9338H87.6941V38.6754C87.6941 37.8203 88.025 37.4704 88.5536 37.4704C89.0823 37.4704 89.3844 37.7915 89.3844 38.6754V40.9338H89.931V38.6754C89.931 37.8203 90.2655 37.4704 90.7906 37.4704C91.3444 37.4704 91.6177 37.7915 91.6177 38.6754L91.6069 38.6718Z" fill="white"/>
<path d="M43.8795 45.6713C42.8509 45.3033 42.6639 45.0616 42.6639 44.6358C42.6639 44.2101 42.9588 43.8818 43.6601 43.8818C44.1744 43.8818 44.5196 44.0478 44.8901 44.358L45.2569 43.9107C44.8253 43.5679 44.383 43.3623 43.6961 43.3623C42.7358 43.3623 42.0921 43.8457 42.0921 44.6755C42.0921 45.4187 42.4661 45.7759 43.5738 46.1728C44.5124 46.5155 44.7965 46.7825 44.7965 47.2623C44.7965 47.8035 44.3722 48.1426 43.6889 48.1426C43.1602 48.1426 42.7143 47.8973 42.3259 47.5257L41.9482 47.9514C42.351 48.3627 42.9732 48.6621 43.6709 48.6621C44.739 48.6621 45.3648 48.038 45.3648 47.2298C45.3648 46.4217 45.0159 46.0826 43.8831 45.6713H43.8795Z" fill="white"/>
<path d="M47.6991 45.1224C48.0875 45.1224 48.3428 45.2595 48.6198 45.5121L48.9506 45.1008C48.6485 44.8338 48.2493 44.6426 47.7351 44.6426C46.9295 44.6426 46.0771 45.2451 46.0771 46.6701C46.0771 48.0158 46.8504 48.658 47.6955 48.658C48.235 48.658 48.609 48.4524 48.9326 48.1205L48.6018 47.7705C48.3393 48.0267 48.0911 48.1782 47.7171 48.1782C47.0374 48.1782 46.631 47.5685 46.631 46.6196C46.631 45.6708 47.0949 45.1152 47.6955 45.1152L47.6991 45.1224Z" fill="white"/>
<path d="M51.2987 44.6458C50.8168 44.6458 50.4535 44.8731 50.2341 45.1978V43.3867H49.6875V48.5891H50.2341V46.3307C50.2341 45.4864 50.6549 45.1257 51.1872 45.1257C51.8057 45.1257 52.0971 45.4973 52.0971 46.3307V48.5891H52.6473V46.2332C52.6473 45.1257 52.1114 44.6458 51.2987 44.6458Z" fill="white"/>
<path d="M55.1004 44.6465C54.1653 44.6465 53.4209 45.35 53.4209 46.6596C53.4209 47.9692 54.1366 48.6655 55.0716 48.6655C56.0067 48.6655 56.7583 47.9404 56.7583 46.6308C56.7583 45.3211 56.0354 44.6465 55.1004 44.6465ZM55.0896 48.1857C54.4207 48.1857 53.9711 47.659 53.9711 46.6452C53.9711 45.6314 54.4207 45.1263 55.0896 45.1263C55.7585 45.1263 56.2081 45.6314 56.2081 46.6452C56.2081 47.659 55.7549 48.1857 55.0896 48.1857Z" fill="white"/>
<path d="M58.1352 43.3838H57.585V48.5862H58.1352V43.3838Z" fill="white"/>
<path d="M60.6497 44.6465C60.1498 44.6465 59.6966 44.7728 59.3622 44.9568L59.5672 45.4077C59.8836 45.2237 60.2145 45.1119 60.6173 45.1119C61.1783 45.1119 61.4516 45.3933 61.4516 45.9633V46.4215C61.2251 46.2952 60.8798 46.1978 60.495 46.1978C59.7326 46.1978 59.0205 46.5658 59.0205 47.4353C59.0205 48.3661 59.6499 48.6655 60.2505 48.6655C60.8007 48.6655 61.1783 48.4094 61.4516 48.1172V48.5898H62.0019V45.902C62.0019 45 61.4804 44.6501 60.6532 44.6501L60.6497 44.6465ZM61.448 47.6373C61.2179 47.9548 60.8367 48.2146 60.344 48.2146C59.8764 48.2146 59.56 47.9656 59.56 47.392C59.56 46.9049 59.898 46.638 60.4626 46.638C60.9302 46.638 61.1999 46.7173 61.448 46.858V47.6373Z" fill="white"/>
<path d="M63.5942 45.2051V44.7216H63.0439V48.582H63.5942V46.3163C63.5942 45.5839 63.8891 45.1474 64.4285 45.1474C64.6875 45.1474 64.8529 45.2051 65.0075 45.2953L65.1478 44.7361C65.0147 44.6784 64.8349 44.6387 64.5472 44.6387C64.1372 44.6387 63.7668 44.8876 63.5978 45.2015L63.5942 45.2051Z" fill="white"/>
<path d="M67.2553 46.3421C66.6044 46.0463 66.4066 45.9128 66.4066 45.5917C66.4066 45.3139 66.6403 45.1155 67.0431 45.1155C67.4459 45.1155 67.7049 45.2273 68.0034 45.4618L68.309 45.0578C68.0141 44.816 67.6078 44.6465 67.0791 44.6465C66.3814 44.6465 65.8743 45.0433 65.8743 45.6314C65.8743 46.2195 66.198 46.4828 66.9676 46.8111C67.6473 47.1034 67.8739 47.2838 67.8739 47.5976C67.8739 47.9764 67.6257 48.1929 67.1007 48.1929C66.7159 48.1929 66.3598 48.0378 66.0505 47.7672L65.7305 48.1713C66.0973 48.4671 66.5576 48.6619 67.0863 48.6619C67.7516 48.6619 68.4026 48.33 68.4026 47.576C68.4026 46.8833 67.9782 46.674 67.2517 46.3421H67.2553Z" fill="white"/>
<path d="M70.9136 44.6458C70.4245 44.6458 70.0684 44.8731 69.8491 45.1978V43.3867H69.2988V48.5891H69.8491V46.3307C69.8491 45.4864 70.2662 45.1257 70.8021 45.1257C71.4171 45.1257 71.7084 45.4973 71.7084 46.3307V48.5891H72.2586V46.2332C72.2586 45.1257 71.7264 44.6458 70.9136 44.6458Z" fill="white"/>
<path d="M73.8914 44.7217H73.3447V48.582H73.8914V44.7217Z" fill="white"/>
<path d="M73.6287 43.25C73.4057 43.25 73.2295 43.4268 73.2295 43.6505C73.2295 43.8741 73.4057 44.0401 73.6287 44.0401C73.8337 44.0401 74.0099 43.8597 74.0099 43.6505C74.0099 43.4268 73.8337 43.25 73.6287 43.25Z" fill="white"/>
<path d="M76.7073 44.6465C76.1894 44.6465 75.8226 44.9062 75.5493 45.1985V44.7259H74.999V50.004H75.5493V48.1532C75.819 48.4599 76.1499 48.6655 76.6354 48.6655C77.4373 48.6655 78.0847 47.9584 78.0847 46.5947C78.0847 45.2309 77.4733 44.6465 76.7073 44.6465ZM76.5886 48.1857C76.1355 48.1857 75.7615 47.9295 75.5493 47.6048V45.6783C75.819 45.3428 76.157 45.1227 76.567 45.1227C77.1784 45.1227 77.5452 45.6278 77.5452 46.5983C77.5452 47.6337 77.2288 48.1821 76.5922 48.1821L76.5886 48.1857Z" fill="white"/>
<path d="M80.9937 43.9609H83.432V43.4414H80.4219V48.5861H80.9937V46.1869H82.3999V45.6674H80.9937V43.9609Z" fill="white"/>
<path d="M85.1011 44.6465C84.166 44.6465 83.418 45.35 83.418 46.6596C83.418 47.9692 84.1372 48.6655 85.0723 48.6655C86.0073 48.6655 86.759 47.9404 86.759 46.6308C86.759 45.3211 86.0433 44.6465 85.1011 44.6465ZM85.0903 48.1857C84.4214 48.1857 83.979 47.659 83.979 46.6452C83.979 45.6314 84.4249 45.1263 85.0903 45.1263C85.7556 45.1263 86.2123 45.6314 86.2123 46.6452C86.2123 47.659 85.7592 48.1857 85.0903 48.1857Z" fill="white"/>
<path d="M89.7907 46.9801C89.7907 47.8244 89.3771 48.1851 88.8413 48.1851C88.2263 48.1851 87.9314 47.8135 87.9314 46.9801V44.7217H87.3848V47.0739C87.3848 48.1815 87.9206 48.6614 88.7334 48.6614C89.2117 48.6614 89.5713 48.4377 89.7907 48.113V48.5856H90.3446V44.7253H89.7907V46.9837V46.9801Z" fill="white"/>
<path d="M92.8758 44.6462C92.3939 44.6462 92.0343 44.8735 91.8149 45.1982V44.7256H91.2646V48.5859H91.8149V46.3274C91.8149 45.4832 92.2321 45.1224 92.7679 45.1224C93.3829 45.1224 93.6742 45.494 93.6742 46.3274V48.5859H94.2244V46.23C94.2244 45.1224 93.6886 44.6426 92.8758 44.6426V44.6462Z" fill="white"/>
<path d="M97.5296 45.1624C97.2562 44.8521 96.929 44.6429 96.4435 44.6429C95.6379 44.6429 94.9941 45.3464 94.9941 46.7174C94.9941 48.0883 95.6019 48.662 96.3715 48.662C96.893 48.662 97.2562 48.4058 97.526 48.1136V48.5862H98.0762V43.3838H97.526V45.1624H97.5296ZM97.5296 47.6301C97.2562 47.9657 96.9218 48.1857 96.5118 48.1857C95.904 48.1857 95.5372 47.6806 95.5372 46.7101C95.5372 45.6711 95.8501 45.1227 96.4902 45.1227C96.9434 45.1227 97.3138 45.3789 97.5296 45.7036V47.6265V47.6301Z" fill="white"/>
<path d="M100.407 44.6465C99.9105 44.6465 99.4574 44.7728 99.1193 44.9568L99.3207 45.4077C99.6372 45.2237 99.9681 45.1119 100.371 45.1119C100.932 45.1119 101.202 45.3933 101.202 45.9633V46.4215C100.975 46.2952 100.63 46.1978 100.241 46.1978C99.4826 46.1978 98.7705 46.5658 98.7705 47.4353C98.7705 48.3661 99.4035 48.6655 100.004 48.6655C100.554 48.6655 100.932 48.4094 101.202 48.1172V48.5898H101.752V45.902C101.752 45 101.234 44.6501 100.403 44.6501L100.407 44.6465ZM101.205 47.6373C100.971 47.9548 100.601 48.2146 100.098 48.2146C99.6336 48.2146 99.3207 47.9656 99.3207 47.392C99.3207 46.9049 99.6552 46.638 100.22 46.638C100.687 46.638 100.961 46.7173 101.205 46.858V47.6373Z" fill="white"/>
<path d="M103.507 43.3838H102.953V44.7223H102.479V45.1877H102.953V47.7889C102.953 48.4274 103.212 48.6583 103.69 48.6583C103.978 48.6583 104.183 48.615 104.395 48.5285L104.435 48.0522C104.259 48.1244 104.115 48.1605 103.892 48.1605C103.601 48.1605 103.507 48.0414 103.507 47.6987V45.1877H104.46V44.7223H103.507V43.3838Z" fill="white"/>
<path d="M105.708 43.25C105.482 43.25 105.302 43.4268 105.302 43.6505C105.302 43.8741 105.482 44.0401 105.708 44.0401C105.913 44.0401 106.086 43.8597 106.086 43.6505C106.086 43.4268 105.91 43.25 105.708 43.25Z" fill="white"/>
<path d="M105.97 44.7217H105.42V48.582H105.97V44.7217Z" fill="white"/>
<path d="M108.481 44.6465C107.546 44.6465 106.798 45.35 106.798 46.6596C106.798 47.9692 107.514 48.6655 108.452 48.6655C109.391 48.6655 110.135 47.9404 110.135 46.6308C110.135 45.3211 109.416 44.6465 108.481 44.6465ZM108.467 48.1857C107.801 48.1857 107.352 47.659 107.352 46.6452C107.352 45.6314 107.801 45.1263 108.467 45.1263C109.132 45.1263 109.589 45.6314 109.589 46.6452C109.589 47.659 109.135 48.1857 108.467 48.1857Z" fill="white"/>
<path d="M112.541 44.6462C112.059 44.6462 111.699 44.8735 111.476 45.1982V44.7256H110.926V48.5859H111.476V46.3274C111.476 45.4832 111.893 45.1224 112.429 45.1224C113.044 45.1224 113.339 45.494 113.339 46.3274V48.5859H113.886V46.23C113.886 45.1224 113.35 44.6426 112.541 44.6426V44.6462Z" fill="white"/>
<path d="M63.1051 25.6582C60.8969 25.6618 59.0771 27.3935 59.0771 29.5654C59.0771 31.7373 60.8969 33.451 63.1051 33.4582C65.3348 33.451 67.1366 31.7156 67.1366 29.5654C67.1366 27.4152 65.3348 25.6618 63.1051 25.6582ZM63.0511 31.676C61.8967 31.676 61.0264 30.7307 61.0264 29.5654C61.0264 28.4001 61.9578 27.4368 63.1086 27.4368C64.2595 27.4368 65.1586 28.3821 65.1586 29.5654C65.1586 30.7488 64.2163 31.676 63.0547 31.676H63.0511Z" fill="white"/>
<path d="M44.6239 22.9704C45.2389 23.5801 45.9438 24.114 46.6379 24.4568L46.7098 24.4964L47.9002 23.0858L47.7851 23.0209C46.6558 22.4076 45.7711 21.6319 45.1921 20.6542C44.6167 19.6909 44.3218 18.5725 44.3218 17.234V15.9785H42.1928V17.1005C42.1928 18.5509 41.8655 19.6909 41.2505 20.6903C40.5636 21.7978 39.5459 22.689 38.244 23.5151L38.1289 23.5873L39.42 24.9294L39.4919 24.8897C40.2615 24.4712 41.0779 23.8254 41.7864 23.1038C42.4014 22.4725 42.9336 21.7978 43.2573 21.1593C43.5702 21.787 44.0485 22.4256 44.6239 22.974V22.9704Z" fill="white"/>
<path d="M42.3184 32.5347H51.2301V26.4268H42.3184V32.5347ZM44.3215 28.1513H49.2269V30.8102H44.3215V28.1513Z" fill="white"/>
<path d="M72.0312 32.5347H82.1082V26.4268H72.0312V32.5347ZM74.0128 28.1513H80.1302V30.8102H74.0128V28.1513Z" fill="white"/>
<path d="M51.2667 15.6182H49.2852V25.7271H51.2667V21.2535H53.5864V19.4568H51.2667V15.6182Z" fill="white"/>
<path d="M92.3509 23.4861C93.0018 24.0525 93.7463 24.5287 94.4476 24.8354L94.5195 24.8678L95.5912 23.4139L95.4761 23.3562C94.4548 22.8331 93.5449 22.1837 92.8903 21.39C92.225 20.5818 91.8294 19.6077 91.8294 18.4352V18.0925H94.7784V16.3535H86.773V18.0925H89.7184V18.511C89.7184 19.5789 89.3659 20.5746 88.7797 21.4369C88.0928 22.4723 87.0894 23.3057 86.1148 23.8468L85.9854 23.9154L87.3016 25.2827L87.3735 25.2467C88.082 24.8426 88.866 24.2329 89.5349 23.5474C90.0708 22.9846 90.5527 22.3893 90.8476 21.794C91.2037 22.3713 91.7503 22.9485 92.3545 23.4861H92.3509Z" fill="white"/>
<path d="M106.683 28.1903H113.886V32.5305H115.886V26.4658H106.683V28.1903Z" fill="white"/>
<path d="M111.652 21.2386C111.652 20.2825 111.224 19.4022 110.592 18.7312H112.57V17.0103H108.793V15.1162H106.646V17.0103H102.78V18.7312H104.801C104.183 19.4022 103.755 20.2753 103.755 21.2386C103.755 23.3708 105.506 25.1025 107.696 25.1097C109.887 25.1025 111.649 23.3708 111.652 21.2386ZM105.665 21.1592C105.665 19.9795 106.657 18.9801 107.696 18.9801C108.736 18.9801 109.725 19.9831 109.728 21.1592C109.728 22.3209 108.736 23.3239 107.696 23.3275C106.654 23.3239 105.668 22.3209 105.665 21.1592Z" fill="white"/>
<path d="M115.885 15.6182H113.907V25.7632H115.885V21.8921H118.212V20.0954H115.885V15.6182Z" fill="white"/>
<path d="M99.101 15.6182H97.123V25.7632H99.101V21.2535H101.424V19.4568H99.101V15.6182Z" fill="white"/>
<path d="M65.5256 18.627H62.4111V20.4057H65.5256V26.0843H67.5072V15.6182H65.5256V18.627Z" fill="white"/>
<path d="M60.4949 23.2337C61.1135 23.8398 61.8363 24.3738 62.5268 24.7346L62.6024 24.7779L63.7928 23.3672L63.6777 23.3023C62.5484 22.707 61.6817 21.9349 61.0991 20.9717C60.5093 20.0156 60.2144 18.8539 60.2144 17.5154V15.9785H58.0818V17.3855C58.0818 18.8359 57.7581 19.9723 57.1575 20.9536C56.4742 22.0792 55.4348 22.9776 54.133 23.7965L54.0215 23.8687L55.3198 25.2144L55.3845 25.1711C56.1505 24.749 56.9489 24.1393 57.6574 23.443C58.2975 22.8044 58.8298 22.1081 59.1535 21.4407C59.4592 22.0504 59.9267 22.6709 60.4949 23.2373V23.2337Z" fill="white"/>
<path d="M94.8538 25.6582C92.6456 25.6618 90.8259 27.3935 90.8223 29.5654C90.8259 31.7156 92.642 33.451 94.8538 33.4582C97.0799 33.451 98.8853 31.7156 98.8853 29.5654C98.8853 27.4152 97.0799 25.6618 94.8538 25.6582ZM94.7962 31.676C93.6454 31.676 92.7679 30.7307 92.7679 29.5654C92.7679 28.4001 93.6957 27.4368 94.8538 27.4368C96.0118 27.4368 96.9001 28.3821 96.9037 29.5654C96.9037 30.7271 95.9578 31.676 94.7962 31.676Z" fill="white"/>
<path d="M74.4453 21.4156H76.4269V16.2529H71.0791V17.9702H74.4453V21.4156Z" fill="white"/>
<path d="M80.3929 21.4156H82.378V16.2529H77.0303V17.9702H80.3929V21.4156Z" fill="white"/>
<path d="M130.904 20.1892H129.239V15.8996H127.365V32.0984H129.239V22.1374H130.904V32.5314H132.846V15.6182H130.904V20.1892Z" fill="white"/>
<path d="M124.617 22.4291C124.171 21.4514 123.988 20.3582 123.988 19.0162V18.3776H126.236V16.5557H119.705V18.3776H122.024V19.0522C122.024 20.3222 121.859 21.3612 121.46 22.3245C120.996 23.4321 120.215 24.4278 118.971 25.4957L118.885 25.5751L120.115 26.7981L120.19 26.7404C120.809 26.2822 121.456 25.6184 121.996 24.9329C122.452 24.3557 122.837 23.7568 123.078 23.23C123.326 23.7423 123.715 24.3304 124.168 24.8788C124.693 25.521 125.286 26.1307 125.854 26.4951L125.93 26.5456L126.966 25.3045L126.883 25.2287C125.768 24.2546 125.078 23.3852 124.625 22.4255L124.617 22.4291Z" fill="white"/>
<path d="M69.4209 23.818H75.9986V25.7445H78.1456V23.818H84.8276V22.0898H69.4209V23.818Z" fill="white"/>
<path d="M144.128 23.266H137.432V18.1538H142.531V16.3535H135.425V25.0121H144.128V23.266Z" fill="white"/>
<path d="M140.341 27.1406H138.338V32.5306H147.706V30.7556H140.341V27.1406Z" fill="white"/>
<path d="M147.66 20.3007V15.6143H145.682V28.0935H147.66V22.0974H150.001V20.3007H147.66Z" fill="white"/>
<path d="M42.0087 10.3976L36.8767 8.26539L42.0087 6.1332L41.0953 3.92886L35.9669 6.06104L38.0923 0.912764L35.8913 0L33.7695 5.14828L31.6441 0L29.4431 0.912764L31.5685 6.06104L26.4401 3.92886L25.5303 6.1332L30.6587 8.26539L25.5303 10.3976L26.4401 12.6019L31.5685 10.4697L29.4431 15.618L31.6441 16.5308L33.7695 11.3861L35.8913 16.5308L38.0923 15.6144L35.9669 10.4697L41.0953 12.6019L42.0087 10.3976Z" fill="white"/>
<path d="M8.80409 24.7602H12.217V15.6182H0.546875V18.6992H8.80409V24.7602Z" fill="white"/>
<path d="M22.1176 24.7602H25.5305V15.6182H13.8604V18.6992H22.1176V24.7602Z" fill="white"/>
<path d="M0 29.4902H22.1175V34.1983H25.5305V26.4092H0V29.4902Z" fill="white"/>
<path d="M8.25684 48.5862H25.5301V35.7822H8.25684V48.5862ZM11.6662 38.8669H22.1172V45.5088H11.6662V38.8669Z" fill="white"/>
</g>
<defs>
<clipPath id="clip0_20_783">
<rect width="150" height="50" fill="white"/>
</clipPath>
</defs>
</svg>
