<svg width="117" height="39" viewBox="0 0 117 39" fill="none" xmlns="http://www.w3.org/2000/svg">
<path d="M93.1479 9.41609C93.1479 9.74366 93.1959 10.0831 93.3278 10.4047C93.9094 11.8341 95.3904 12.7156 97.2732 11.9711C97.7229 11.7924 110.177 6.80746 110.177 6.80746C110.177 6.80746 105.272 19.1597 105.086 19.6183C104.372 21.3872 105.23 22.9893 106.687 23.5253C107.011 23.6445 107.346 23.704 107.676 23.6981C108.869 23.6921 109.919 22.9953 110.434 21.6016C110.512 21.3932 116.646 4.66338 116.778 4.26434C116.856 4.02611 117 3.46626 117 3.07914C117 2.25129 116.694 1.47108 116.101 0.881456C115.519 0.297789 114.74 0 113.918 0C113.516 0 113.193 0.0714694 112.701 0.22632C112.407 0.321612 96.5956 6.16423 95.2465 6.66452C93.8974 7.1648 93.1479 8.23685 93.1539 9.41609" fill="#ED1C24"/>
<path d="M63.5216 18.85V18.4927H53.934V20.9286H59.5043C58.0532 25.4907 52.8667 28.1708 52.8667 28.1708L54.2518 30.0945C54.2518 30.0945 63.5216 26.2947 63.5216 18.8441V18.85Z" fill="#454B52"/>
<path d="M60.4937 35.0259V30.291H57.094V35.6274C57.094 37.295 58.4311 38.4981 60.2659 38.4981H70.8008V36.0681H61.6809C60.8535 36.0681 60.5057 35.7406 60.4877 35.0259H60.4937Z" fill="#454B52"/>
<path d="M63.1379 22.9836V25.4195H67.1852V31.2919H70.585V18.2368H67.1852V22.9836H63.1379Z" fill="#454B52"/>
<path d="M92.4343 28.0223H95.834V18.1357H92.4343V21.2149H88.8906V23.621H92.4343V28.0223Z" fill="#454B52"/>
<path d="M16.1772 30.1064H3.23779V35.6275C3.23779 37.2951 4.5749 38.4981 6.40968 38.4981H16.9327V30.8569C16.9327 30.44 16.5909 30.1064 16.1772 30.1064ZM13.5329 36.0682H7.82473C6.99728 36.0682 6.64352 35.7466 6.63153 35.0259V32.5483H13.5329V36.0682Z" fill="#454B52"/>
<path d="M17.1605 18.5282V18.415H3.05196V20.851H13.6049C13.6049 21.0118 13.6049 21.2143 13.6049 21.4108C13.6049 23.674 13.491 25.1629 13.431 25.7704H0V28.2063H20.6922V25.7704H16.459C16.6629 25.0081 17.1665 22.6496 17.1665 18.5282H17.1605Z" fill="#454B52"/>
<path d="M38.2903 31.3335C41.1144 30.7201 43.201 28.6177 43.201 26.1282C43.201 24.7881 42.5954 23.5612 41.6001 22.6142H45.2097V20.1783H38.2903V17.8794H34.8966V20.1783H27.9772V22.6142H31.5868C30.5915 23.5612 29.9859 24.7821 29.9859 26.1282C29.9859 28.6236 32.0725 30.7201 34.9026 31.3335V33.7992H26.2563V36.2351H46.9425V33.7992H38.2963V31.3335H38.2903ZM33.4755 26.0507C33.4755 24.3891 34.8726 23.0311 36.5875 23.0311C38.3023 23.0311 39.6994 24.3831 39.6994 26.0507C39.6994 27.7183 38.3023 29.0703 36.5875 29.0703C34.8726 29.0703 33.4755 27.7183 33.4755 26.0507Z" fill="#454B52"/>
<path d="M85.9347 27.8138H89.2265C89.0886 27.0217 87.8834 20.6252 84.7475 18.4097H80.952L78.032 27.8913H81.4437L83.3864 21.0659C85.0233 22.9718 85.8208 27.1885 85.9287 27.8138H85.9347Z" fill="#454B52"/>
<path d="M86.6123 36.1515C85.7488 36.1515 85.5929 35.9312 85.5929 35.2046V34.9008H95.8401V29.7788C95.8401 29.3381 95.5163 28.9927 95.0546 28.9927H82.2532V31.3393H92.5843V32.5959H82.3431V35.6274C82.3431 37.3844 83.6143 38.4981 85.515 38.4981H96.062V36.1515H86.6123Z" fill="#454B52"/>
</svg>
