<svg width="117" height="39" viewBox="0 0 117 39" fill="none" xmlns="http://www.w3.org/2000/svg">
<path d="M92.5271 9.41648C92.5271 9.74406 92.5748 10.0835 92.7058 10.4052C93.2835 11.8346 94.7547 12.7161 96.6249 11.9716C97.0716 11.7929 109.442 6.80774 109.442 6.80774C109.442 6.80774 104.57 19.1605 104.386 19.6191C103.677 21.3881 104.529 22.9903 105.976 23.5263C106.298 23.6454 106.631 23.705 106.959 23.699C108.144 23.6931 109.186 22.9962 109.698 21.6025C109.776 21.394 115.869 4.66357 116 4.26451C116.077 4.02627 116.22 3.46641 116.22 3.07926C116.22 2.25138 115.917 1.47114 115.327 0.881492C114.749 0.297801 113.975 0 113.159 0C112.76 0 112.438 0.0714723 111.95 0.226329C111.658 0.321625 95.9519 6.16449 94.6118 6.66479C93.2716 7.1651 92.5271 8.23718 92.5331 9.41648" fill="white"/>
<path d="M63.0988 18.851V18.4937H53.575V20.9297H59.1082C57.6669 25.492 52.5149 28.1722 52.5149 28.1722L53.8907 30.096C53.8907 30.096 63.0988 26.296 63.0988 18.8451V18.851Z" fill="white"/>
<path d="M60.0904 35.0275V30.2925H56.7133V35.6291C56.7133 37.2968 58.0415 38.4999 59.864 38.4999H70.3289V36.0698H61.2697C60.4477 36.0698 60.1023 35.7422 60.0844 35.0275H60.0904Z" fill="white"/>
<path d="M62.7172 22.9838V25.4198H66.7376V31.2924H70.1147V18.2368H66.7376V22.9838H62.7172Z" fill="white"/>
<path d="M91.8194 28.0232H95.1965V18.1362H91.8194V21.2155H88.2994V23.6217H91.8194V28.0232Z" fill="white"/>
<path d="M16.0699 30.1074H3.21669V35.6287C3.21669 37.2963 4.54489 38.4995 6.36745 38.4995H16.8204V30.8579C16.8204 30.441 16.4809 30.1074 16.0699 30.1074ZM13.4433 36.0694H7.77309C6.95115 36.0694 6.59974 35.7478 6.58783 35.0271V32.5494H13.4433V36.0694Z" fill="white"/>
<path d="M17.0463 18.5292V18.416H3.03164V20.852H13.5143C13.5143 21.0128 13.5143 21.2153 13.5143 21.4119C13.5143 23.6752 13.4012 25.1642 13.3416 25.7717H0V28.2077H20.5544V25.7717H16.3494C16.5519 25.0093 17.0522 22.6507 17.0522 18.5292H17.0463Z" fill="white"/>
<path d="M38.0354 31.3345C40.8407 30.7211 42.9134 28.6186 42.9134 26.129C42.9134 24.7889 42.3118 23.5619 41.3231 22.6149H44.9087V20.1789H38.0354V17.8799H34.6642V20.1789H27.7909V22.6149H31.3765C30.3878 23.5619 29.7862 24.7829 29.7862 26.129C29.7862 28.6246 31.8589 30.7211 34.6702 31.3345V33.8003H26.0815V36.2364H46.63V33.8003H38.0413V31.3345H38.0354ZM33.2526 26.0516C33.2526 24.3898 34.6404 23.0318 36.3438 23.0318C38.0473 23.0318 39.435 24.3839 39.435 26.0516C39.435 27.7192 38.0473 29.0713 36.3438 29.0713C34.6404 29.0713 33.2526 27.7192 33.2526 26.0516Z" fill="white"/>
<path d="M85.3626 27.8147H88.6325C88.4955 27.0226 87.2983 20.6258 84.1833 18.4102H80.4131L77.5125 27.8922H80.9015L82.8313 21.0665C84.4573 22.9725 85.2494 27.1893 85.3566 27.8147H85.3626Z" fill="white"/>
<path d="M86.0353 36.1533C85.1776 36.1533 85.0228 35.9329 85.0228 35.2063V34.9025H95.2017V29.7803C95.2017 29.3396 94.8801 28.9941 94.4215 28.9941H81.7052V31.3408H91.9676V32.5975H81.7946V35.6292C81.7946 37.3862 83.0573 38.5 84.9453 38.5H95.4221V36.1533H86.0353Z" fill="white"/>
</svg>
