<svg width="119" height="30" viewBox="0 0 119 30" fill="none" xmlns="http://www.w3.org/2000/svg">
<path d="M102.171 29.2207C101.871 29.2807 101.571 29.3907 101.271 29.3907C100.561 29.3807 99.8613 29.3007 99.1513 29.2807C98.1913 29.2507 97.2213 28.3307 97.2413 27.3907C97.2613 26.6607 97.3413 25.9407 97.3613 25.2107C97.3813 24.4007 97.1613 24.0707 96.3613 24.0107C95.7613 23.9707 95.1213 24.0807 94.5313 24.2207C93.5713 24.4607 93.7613 25.3307 94.0613 26.1807C94.4413 27.2607 95.4313 27.7507 96.2113 28.4507C96.3713 28.6007 96.4713 28.8107 96.6013 29.0007C96.3913 29.1407 96.1813 29.3907 95.9713 29.3907C94.9713 29.3907 93.9613 29.4007 92.9813 29.2407C92.5613 29.1707 92.2013 28.7007 91.8213 28.4007C91.0313 27.7407 90.3013 26.9807 89.4313 26.4507C89.0413 26.2107 88.3513 26.3407 87.8313 26.4407C87.3713 26.5307 87.1113 26.9207 87.1513 27.4207C87.1913 27.8907 87.2213 28.3607 87.8613 28.4607C88.0213 28.4907 88.1313 28.7707 88.2713 28.9307C88.0813 29.0107 87.9013 29.1207 87.7113 29.1607C87.4513 29.2207 87.1813 29.2607 86.9213 29.2607C86.2913 29.2607 85.6613 29.2407 85.0313 29.2307C84.8913 29.2307 84.7613 29.2007 84.6213 29.2207C83.9013 29.2807 83.5613 28.9607 83.6313 28.4007C83.7313 27.6107 83.8613 26.8207 84.0513 26.0407C84.2413 25.2707 84.6613 24.5207 84.7013 23.7507C84.7513 23.0007 84.5013 22.2107 84.3013 21.4607C84.0713 20.6107 83.6513 19.8107 83.4713 18.9607C83.2013 17.7307 83.1413 16.4907 84.0013 15.3907C84.3913 14.8907 84.6113 14.2607 85.0313 13.8007C85.8813 12.8807 86.5913 11.8907 87.9313 11.4107C88.9513 11.0507 89.9613 10.9607 90.9713 10.7507C91.0313 10.7407 91.1013 10.7307 91.1613 10.7507C92.2213 11.1607 93.3313 11.2107 94.4513 11.3007C94.9813 11.3407 95.5113 11.4607 96.0513 11.4907C97.0113 11.5507 97.9713 11.6507 98.9213 11.6107C100.281 11.5507 101.651 11.4307 103.001 11.2407C104.301 11.0507 105.551 11.1407 106.821 11.4207C107.781 11.6307 108.781 11.9007 109.741 11.8407C110.841 11.7707 111.851 11.8907 112.771 12.4107C114.621 13.4607 116.481 14.4807 118.141 15.8307C118.571 16.1807 118.571 16.7507 118.011 17.0407C117.221 17.4607 116.371 17.7607 115.521 18.0507C114.281 18.4807 112.971 18.7307 111.791 19.2807C110.521 19.8707 109.381 20.7607 108.151 21.4507C107.501 21.8207 106.901 22.1907 106.501 22.8507C106.191 23.3607 106.111 23.7907 106.421 24.3407C106.731 24.8907 107.011 25.4907 107.161 26.1007C107.381 26.9807 108.001 27.4307 108.711 27.8507C109.051 28.0507 109.401 28.2107 109.731 28.4307C109.891 28.5407 110.081 28.7407 110.071 28.8807C110.061 29.0307 109.841 29.2707 109.681 29.2907C109.171 29.3707 108.661 29.3707 108.141 29.3807C107.891 29.3807 107.641 29.2807 107.401 29.3007C106.211 29.4307 105.401 28.8607 104.591 28.0607C103.881 27.3507 103.001 26.8207 102.171 26.2507C101.971 26.1107 101.651 26.0307 101.431 26.0807C101.001 26.1807 100.431 26.1707 100.381 26.8307C100.331 27.4807 100.721 28.0207 101.351 28.3107C101.671 28.4607 101.931 28.7507 102.221 28.9707C102.211 29.0407 102.191 29.1307 102.171 29.2207Z" fill="white"/>
<path d="M5.95133 3.70066C6.77133 3.25066 7.48133 3.02066 7.79133 2.30066C8.28133 1.15066 9.27133 0.700664 10.3713 0.420664C10.6913 0.340664 11.0613 0.510664 11.4113 0.520664C13.0213 0.570664 14.6413 0.790664 15.8813 1.83066C17.0213 2.79066 18.1613 3.78066 18.7913 5.26066C19.4013 6.68066 19.6813 8.07066 19.5613 9.62066C19.4513 11.0107 19.1413 12.2707 18.5013 13.5107C18.0113 14.4607 17.9713 15.4407 18.6713 16.4707C19.1713 17.2107 19.2713 18.2407 19.5213 19.1407C19.9213 20.6407 19.5313 22.1107 19.2613 23.5807C19.2413 23.6807 19.1913 23.7807 19.1413 23.8607C18.5913 24.7707 18.1513 25.7907 17.4413 26.5607C16.6513 27.4207 15.6713 28.1307 14.5013 28.5307C13.0713 29.0207 11.6113 29.2407 10.1313 29.2707C7.29133 29.3207 4.46133 29.2907 1.62133 29.2807C1.40133 29.2807 1.17133 29.2307 0.951333 29.2007C0.311333 29.1007 0.081333 28.7607 0.081333 28.0807C0.101333 19.4407 0.101333 10.8007 0.0913332 2.17066C0.0913332 1.82066 0.0413331 1.47066 0.0013331 1.12066C-0.0286669 0.670664 0.451333 0.170664 1.07133 0.150664C1.84133 0.130664 2.61133 0.240664 3.38133 0.240664C3.81133 0.240664 4.25133 0.190664 4.67133 0.110664C5.56133 -0.0593359 6.05133 0.470664 5.94133 1.38066C5.85133 2.09066 5.94133 2.81066 5.95133 3.70066ZM9.25133 17.2307C9.25133 17.2507 9.25133 17.2707 9.25133 17.2907C8.66133 17.2907 8.07133 17.2907 7.48133 17.2907C6.47133 17.2907 6.07133 17.5907 5.93133 18.5607C5.87133 19.0107 5.95133 19.4807 5.97133 19.9307C5.99133 20.2607 6.03133 20.5907 6.02133 20.9207C6.01133 21.3107 5.90133 21.7007 5.92133 22.0907C5.96133 23.2207 6.45133 23.8607 7.39133 23.8607C8.93133 23.8607 10.4913 23.9007 11.9913 23.6507C12.6713 23.5307 13.4513 22.8607 13.8013 22.2307C14.1513 21.6007 14.1013 20.7007 14.1013 19.9207C14.1013 18.6807 13.0813 17.5607 11.8713 17.4107C11.0013 17.3207 10.1213 17.2907 9.25133 17.2307ZM9.00133 5.96066C9.00133 5.99066 8.99133 6.03066 8.99133 6.06066C8.42133 6.06066 7.86133 6.06066 7.29133 6.06066C6.51133 6.07066 6.04133 6.52066 6.04133 7.29066C6.03133 8.34066 6.04133 9.40066 6.04133 10.4507C6.04133 11.4307 6.40133 11.7707 7.41133 11.7407C8.64133 11.7007 9.88133 11.6407 11.1113 11.6207C12.5713 11.6007 13.6013 10.8307 13.9513 9.44066C14.3313 7.96066 13.5713 6.61066 12.0913 6.32066C11.0713 6.12066 10.0313 6.07066 9.00133 5.96066Z" fill="white"/>
<path d="M61.1612 15.3307C61.1612 11.2707 61.1612 7.21069 61.1612 3.16069C61.1612 2.42069 61.1612 1.68069 61.1612 0.940686C61.1612 0.400686 61.6612 -0.0193144 62.1912 0.000685622C63.3812 0.0506856 64.5712 0.100686 65.7612 0.120686C66.7312 0.140686 67.1012 0.630686 66.8812 1.57069C66.7912 1.97069 66.7212 2.39069 66.7312 2.80069C66.7412 3.04069 66.8812 3.43069 67.0412 3.47069C67.2612 3.53069 67.6212 3.41069 67.8112 3.24069C68.3812 2.73069 68.9112 2.18069 69.4412 1.63069C70.4612 0.570685 71.7413 0.430686 73.1012 0.550686C73.5712 0.590686 74.0912 0.540686 74.5212 0.710686C76.1312 1.32069 77.7312 2.09069 78.7612 3.48069C79.5912 4.59069 80.2712 5.83069 80.4912 7.30069C80.8212 9.46069 80.5212 11.4507 79.4712 13.3607C78.9512 14.3007 78.3312 15.1207 77.4912 15.7907C76.9712 16.2007 76.9712 16.6607 77.3912 17.3107C78.4112 18.8707 79.0812 20.5607 79.1812 22.4307C79.2912 24.5607 79.9512 26.4407 81.3212 28.0907C81.5012 28.3107 81.6312 28.8507 81.5112 28.9707C81.2612 29.2107 80.8312 29.3707 80.4812 29.3807C79.4112 29.4007 78.3512 29.3007 77.2812 29.2907C76.4612 29.2807 75.7712 29.1107 75.4012 28.2707C74.9812 27.3407 74.3812 26.4607 74.1212 25.4907C73.8712 24.5607 73.9912 23.5507 73.8812 22.5807C73.7012 20.9907 73.0512 19.6407 71.9612 18.4307C70.7612 17.0907 69.2512 17.1607 67.7212 17.2107C67.4512 17.2207 67.0212 17.5907 66.9712 17.8507C66.8012 18.7007 66.7312 19.5707 66.7112 20.4307C66.6912 21.2207 66.8112 22.0107 66.8212 22.8007C66.8412 24.4207 66.8312 26.0407 66.8212 27.6607C66.8212 27.9707 66.7312 28.2707 66.7012 28.5807C66.6612 29.0907 66.3112 29.2607 65.8912 29.2707C64.6312 29.3007 63.3712 29.2907 62.1112 29.2707C61.4612 29.2607 61.1512 28.8407 61.1512 28.0207C61.1512 25.8507 61.1512 23.6907 61.1512 21.5207C61.1612 19.4507 61.1612 17.3907 61.1612 15.3307ZM69.3612 6.44069C68.8612 6.44069 68.3412 6.38069 67.8512 6.46069C67.5312 6.52069 67.0912 6.73069 66.9812 6.99069C66.7812 7.44069 66.7512 7.98069 66.7212 8.49069C66.6812 9.18069 66.7512 9.88068 66.7012 10.5707C66.6612 11.1207 67.0212 11.7307 67.5412 11.7307C69.2612 11.7407 70.9912 11.7707 72.7112 11.7207C74.0412 11.6807 74.5212 11.2907 74.8912 10.0107C75.0012 9.62068 75.0212 9.20069 75.0212 8.79069C75.0412 7.55069 73.9012 6.43069 72.6512 6.43069C71.5612 6.44069 70.4612 6.44069 69.3612 6.44069Z" fill="white"/>
<path d="M39.5912 23.2807C39.5912 21.6007 39.5912 19.9207 39.5912 18.2407C39.5912 12.5207 39.5912 6.80072 39.5912 1.08072C39.5912 0.40072 39.8412 0.14072 40.5212 0.14072C41.6112 0.13072 42.7112 0.14072 43.8012 0.14072C44.0312 0.14072 44.2812 0.16072 44.4812 0.0907202C45.0112 -0.10928 45.6412 0.49072 45.6412 1.10072C45.6412 4.08072 45.6412 7.07072 45.6412 10.0507C45.6412 10.2707 45.5312 10.5007 45.5712 10.7007C45.7612 11.7007 46.3112 11.9507 47.5512 11.7507C48.0712 11.6607 48.6112 11.7407 49.1412 11.7307C50.3712 11.7007 51.6012 11.7107 52.8212 11.5907C53.3912 11.5307 53.6212 11.0507 53.5112 10.4307C53.4512 10.1207 53.5812 9.78072 53.5812 9.46072C53.5912 6.77072 53.5812 4.08072 53.5812 1.39072C53.5812 0.39072 54.1212 0.0207199 55.1312 0.12072C56.1412 0.21072 57.1612 0.14072 58.1812 0.15072C59.2712 0.15072 59.5112 0.44072 59.4012 1.50072C59.3612 1.91072 59.4812 2.33072 59.4812 2.74072C59.4812 3.21072 59.3912 3.69072 59.3912 4.16072C59.3812 11.0707 59.3912 17.9907 59.3912 24.9007C59.3912 26.0407 59.4012 27.1807 59.3912 28.3207C59.3812 29.1207 58.8712 29.4307 58.0812 29.3407C57.1212 29.2407 56.1512 29.2907 55.1912 29.2907C53.7612 29.2807 53.4912 29.0507 53.4712 27.6107C53.4612 26.9907 53.5612 26.3707 53.5812 25.7507C53.6012 25.0807 53.5912 24.4007 53.5912 23.7207C53.5912 22.1407 53.5912 20.5707 53.5912 18.9907C53.5912 17.3307 53.1412 17.3607 51.8312 17.2207C50.7012 17.0907 49.5312 17.2907 48.3812 17.3007C47.8012 17.3107 47.2212 17.2407 46.6412 17.1807C46.1212 17.1207 45.8412 17.4307 45.7112 17.8407C45.5812 18.2507 45.5212 18.6907 45.5312 19.1207C45.5512 20.4807 45.6312 21.8407 45.6412 23.1907C45.6412 24.4207 45.5612 25.6507 45.5312 26.8807C45.5212 27.4107 45.5912 27.9507 45.5112 28.4607C45.3812 29.2907 45.1512 29.3507 44.3012 29.3107C43.1612 29.2507 42.0212 29.2607 40.8812 29.3007C39.7812 29.3407 39.5412 29.1307 39.5812 27.9707C39.6212 26.3907 39.5912 24.8407 39.5912 23.2807Z" fill="white"/>
<path d="M21.3013 14.5107C21.3013 10.0107 21.3013 5.51072 21.3013 1.02072C21.3013 0.220716 21.7513 0.000715688 22.5413 0.100716C23.5113 0.220716 24.5213 0.190716 25.5013 0.100716C26.5113 0.0107157 26.9913 0.500716 26.8313 1.49072C26.7413 2.06072 26.8413 2.67072 26.9113 3.26072C26.9313 3.41072 27.1913 3.65072 27.3113 3.64072C27.5513 3.61072 27.8213 3.47072 27.9813 3.29072C28.7513 2.41072 29.4513 1.47072 30.2613 0.620716C30.5213 0.340716 31.0213 0.160716 31.4213 0.150716C33.2913 0.100716 35.1613 0.120716 37.0313 0.130716C37.7913 0.130716 38.0413 0.550716 38.0013 1.33072C37.9613 2.30072 38.0613 3.28072 38.0713 4.26072C38.0713 4.67072 38.0413 5.09072 37.9413 5.49072C37.8213 5.98072 37.4013 6.06072 36.9513 6.05072C34.0713 6.05072 31.1913 6.06072 28.3113 6.04072C27.2113 6.04072 26.9913 6.27072 26.9013 7.16072C26.7813 8.31072 26.8013 9.48072 26.9013 10.6307C26.9713 11.4707 27.3813 11.7207 28.2613 11.7207C30.5313 11.7207 32.8013 11.7207 35.0713 11.7207C35.9413 11.7207 36.1713 11.9707 36.1913 12.8207C36.2213 13.9007 36.2713 14.9907 36.3113 16.0707C36.3413 16.8407 35.6713 17.3807 34.9213 17.2007C34.7413 17.1607 34.5513 17.1407 34.3613 17.1407C33.0813 17.1807 31.8113 17.2307 30.5313 17.2607C29.7713 17.2807 29.0113 17.2307 28.2513 17.2707C27.2413 17.3307 26.8513 17.7707 26.8513 18.7607C26.8513 19.8707 26.8413 20.9907 26.8613 22.1007C26.8713 22.5107 26.9113 22.9307 27.0013 23.3307C27.1213 23.8407 27.5213 23.9507 28.0113 23.9507C30.8513 23.9407 33.6813 23.9507 36.5213 23.9407C37.7813 23.9407 38.1113 24.3107 38.0813 25.5207C38.0613 26.3607 38.0813 27.2007 38.0713 28.0407C38.0613 28.9207 37.7313 29.2407 36.8613 29.2407C32.0013 29.2407 27.1413 29.2407 22.2913 29.2407C21.5413 29.2407 21.3013 29.0007 21.3013 28.2307C21.2913 23.6807 21.3013 19.0907 21.3013 14.5107Z" fill="white"/>
</svg>
