<svg width="19" height="19" viewBox="0 0 19 19" fill="none" xmlns="http://www.w3.org/2000/svg">
<path d="M7.17763 3.54174C6.43198 3.57347 5.9243 3.69245 5.48008 3.86697C5.02793 4.04941 4.63924 4.28739 4.25055 4.67608C3.86186 5.06477 3.62388 5.45346 3.44937 5.91355C3.27485 6.35777 3.1638 6.86544 3.12414 7.6111C3.09241 8.35675 3.08447 8.59472 3.08447 10.4906C3.09241 12.3864 3.10034 12.6244 3.13207 13.3701C3.1638 14.1157 3.28278 14.6234 3.4573 15.0597C3.63975 15.5198 3.87772 15.9085 4.26641 16.2972C4.6551 16.6859 5.04379 16.9238 5.50388 17.0983C5.9481 17.2729 6.45578 17.3839 7.20143 17.4236C7.94708 17.4553 8.18506 17.4632 10.0809 17.4632C11.9768 17.4553 12.2148 17.4553 12.9604 17.4156C13.7061 17.3839 14.2137 17.2649 14.658 17.0904C15.118 16.908 15.5067 16.67 15.8954 16.2813C16.2841 15.8926 16.5221 15.5039 16.6966 15.0438C16.8711 14.5996 16.9822 14.0919 17.0218 13.3463C17.0536 12.6006 17.0615 12.3627 17.0615 10.4668C17.0536 8.57093 17.0536 8.33295 17.0139 7.5873C16.9822 6.84165 16.8632 6.33397 16.6887 5.88975C16.5062 5.42967 16.2683 5.04097 15.8796 4.65228C15.4909 4.26359 15.1022 4.02562 14.6421 3.8511C14.1979 3.67659 13.6902 3.56553 12.9445 3.52587C12.191 3.50207 11.953 3.49414 10.0571 3.49414C8.16126 3.50207 7.92328 3.51001 7.17763 3.54174ZM7.25696 16.1623C6.57476 16.1306 6.20987 16.0195 5.96396 15.9243C5.63873 15.7974 5.40869 15.6467 5.16278 15.4008C4.91688 15.1549 4.76616 14.9248 4.63924 14.5996C4.54405 14.3537 4.42506 13.9809 4.39333 13.3066C4.3616 12.5689 4.35367 12.3468 4.34574 10.4827C4.34574 8.61852 4.34574 8.39641 4.37747 7.65869C4.4092 6.9765 4.52025 6.6116 4.61544 6.3657C4.74236 6.04047 4.89308 5.81042 5.13898 5.56452C5.38489 5.31861 5.61493 5.16789 5.94016 5.04097C6.18607 4.94578 6.5589 4.83473 7.23316 4.79507C7.97088 4.76334 8.19299 4.7554 10.0492 4.74747C11.9133 4.74747 12.1354 4.74747 12.8732 4.7792C13.5553 4.81093 13.9202 4.92199 14.1661 5.01718C14.4914 5.1441 14.7294 5.29481 14.9673 5.54072C15.2132 5.78663 15.3639 6.01667 15.4909 6.3419C15.5861 6.58781 15.6971 6.96063 15.7368 7.63489C15.7685 8.37261 15.7764 8.59472 15.7844 10.4509C15.7923 12.3151 15.7844 12.5372 15.7526 13.2749C15.7209 13.9571 15.6099 14.322 15.5147 14.5758C15.3877 14.901 15.237 15.1311 14.9911 15.377C14.7452 15.6229 14.5152 15.7736 14.1899 15.9005C13.944 15.9957 13.5712 16.1068 12.8969 16.1464C12.1592 16.1782 11.9371 16.1861 10.073 16.194C8.21679 16.202 7.99468 16.194 7.25696 16.1623ZM12.9525 6.74646C12.9525 7.20654 13.3332 7.57937 13.7933 7.57937C14.2534 7.57937 14.6342 7.19861 14.6262 6.73852C14.6262 6.27844 14.2455 5.90561 13.7854 5.90561C13.3253 5.90561 12.9525 6.28637 12.9525 6.74646ZM6.48751 10.4827C6.48751 12.4658 8.0978 14.0602 10.0809 14.0602C12.0561 14.0523 13.6585 12.4499 13.6585 10.4668C13.6505 8.4916 12.0482 6.88131 10.0651 6.88924C8.08193 6.89717 6.47957 8.50747 6.48751 10.4827ZM7.74084 10.4827C7.74084 9.19759 8.77999 8.15844 10.0651 8.15051C11.3501 8.15051 12.3972 9.18966 12.3972 10.4747C12.3972 11.7598 11.358 12.8069 10.073 12.8069C8.78792 12.8069 7.74877 11.7677 7.74084 10.4827Z" fill="#2D2D2D"/>
</svg>
