<svg width="19" height="19" viewBox="0 0 19 19" fill="none" xmlns="http://www.w3.org/2000/svg">
<path d="M16.8148 6.7824C16.6419 6.16813 16.1339 5.68354 15.4889 5.51969C14.3187 5.2207 9.62834 5.2207 9.62834 5.2207C9.62834 5.2207 4.93712 5.2207 3.76778 5.51969C3.12277 5.68354 2.61393 6.16813 2.44106 6.7824C2.12793 7.89679 2.12793 10.2211 2.12793 10.2211C2.12793 10.2211 2.12793 12.5454 2.44106 13.6598C2.61393 14.2748 3.12195 14.7586 3.76778 14.9225C4.93793 15.2207 9.62834 15.2207 9.62834 15.2207C9.62834 15.2207 14.3187 15.2207 15.4889 14.9225C16.1339 14.7579 16.6427 14.2741 16.8148 13.6598C17.1279 12.5454 17.1279 10.2211 17.1279 10.2211C17.1279 10.2211 17.1279 7.89679 16.8148 6.7824ZM8.12793 12.3637V8.07774L12.0249 10.2211L8.12793 12.3637Z" fill="#2D2D2D"/>
</svg>
