<svg width="36" height="35" viewBox="0 0 36 35" fill="none" xmlns="http://www.w3.org/2000/svg">
<g clip-path="url(#clip0_105_17)">
<path d="M14.2886 23.9918C15.0024 23.9918 15.581 23.2398 15.581 22.3123C15.581 21.3847 15.0024 20.6328 14.2886 20.6328C13.5748 20.6328 12.9962 21.3847 12.9962 22.3123C12.9962 23.2398 13.5748 23.9918 14.2886 23.9918Z" fill="#0171B9"/>
<path d="M34.5276 14.6171C34.298 14.3481 33.9765 14.1054 33.5173 13.9611C33.3467 13.9086 33.1696 13.8889 32.9924 13.8889C32.0018 13.8889 28.1443 13.8561 26.6157 13.8495C26.0384 13.8495 25.4742 13.6855 24.9887 13.3706C24.3064 12.9245 23.5716 11.9405 22.8041 10.8121C21.5969 9.04729 20.1077 8.11571 19.3467 7.74832C18.9531 7.55807 18.5201 7.45966 18.0805 7.46622L10.2999 7.51215L2.49948 0.367817C2.29611 0.177564 2.04025 0.052915 1.76471 0.0201128C1.27268 -0.0454917 0.518226 0.000431392 0.196764 0.774565C0.124599 0.951697 0.0917969 1.14851 0.0917969 1.33876V15.1616C0.0917969 15.5946 0.321413 15.9948 0.701919 16.2113C1.12835 16.454 1.74503 16.6049 2.43388 16.1588C2.76846 15.9489 2.96527 15.5749 2.96527 15.1813V11.4091C2.96527 10.9629 3.26705 10.5496 3.70004 10.4578C3.93622 10.4053 4.19864 10.4447 4.42169 10.7005L8.68598 15.9095C8.84344 16.1063 9.07961 16.2244 9.32891 16.2375L13.4948 16.4475C13.4948 16.4475 15.5089 16.231 18.8219 21.4465C19.0253 21.768 19.3795 21.9648 19.76 21.9648H22.0037C22.8041 21.9648 23.4667 22.6405 23.4011 23.4344C23.4011 23.4737 23.3945 23.5131 23.388 23.559C23.388 23.559 22.7057 29.7127 17.4639 33.6293C17.4639 33.6293 16.88 34.8167 18.0149 34.9086C19.1171 34.9939 32.6316 34.5346 34.5735 22.5618C34.7047 21.7746 34.8819 20.9939 34.9081 20.1935L35.0393 16.1654C35.059 15.6077 34.8884 15.0567 34.5276 14.6302V14.6171ZM19.0056 17.5037C18.0281 17.5037 17.2277 16.4672 17.2277 15.1944C17.2277 13.9217 18.0215 12.8852 19.0056 12.8852C19.9896 12.8852 20.7835 13.9217 20.7835 15.1944C20.7835 16.4672 19.9896 17.5037 19.0056 17.5037Z" fill="#0171B9"/>
<path d="M12.583 26.3866C12.583 26.3866 11.717 20.5872 6.4752 20.6331C1.2334 20.679 0.183728 25.3763 0.183728 25.3763L3.51794e-05 34.1214C3.51794e-05 34.1214 -0.0655693 34.9086 0.708564 35.0005H11.3759C11.7695 35.0005 12.15 34.8102 12.3665 34.4822C12.4518 34.351 12.5108 34.1935 12.4911 34.0295C12.4452 33.485 12.3534 29.9817 16.9785 30.4869C16.9785 30.4869 17.7329 28.0005 12.583 26.3866ZM8.34493 29.3716C7.68232 29.3716 7.15092 28.6762 7.15092 27.8168C7.15092 26.9574 7.68888 26.2619 8.34493 26.2619C9.00097 26.2619 9.53893 26.9574 9.53893 27.8168C9.53893 28.6762 9.00097 29.3716 8.34493 29.3716Z" fill="#0171B9"/>
</g>
<defs>
<clipPath id="clip0_105_17">
<rect width="35.0394" height="35" fill="white"/>
</clipPath>
</defs>
</svg>
