<?xml version="1.0" encoding="UTF-8"?>
<svg id="Layer_1" xmlns="http://www.w3.org/2000/svg" version="1.1" viewBox="0 0 338 99.7">
  <!-- Generator: Adobe Illustrator 29.3.0, SVG Export Plug-In . SVG Version: 2.1.0 Build 146)  -->
  <defs>
    <style>
      .st0 {
        fill: #0b4098;
      }
    </style>
  </defs>
  <path class="st0" d="M167.2,49.1v9h-12c19.4,18-1.6,30.8-20.4,32-20.1,1.4-53.1-8.7-30.5-32h-13s1-9,1-9h74.8,0ZM128.1,60.3c-6.3.2-18.6,2.9-17.8,11.2,1.1,11.3,31.8,11.2,37.4,3.6,8.1-11.2-12.3-15-19.6-14.7h0Z"/>
  <path class="st0" d="M318.8,35.1l-12,.5c-6.4,18.8-40.5,19.7-48,2.2-12-27.8,40.2-38.6,48.2-11.9l11.8.2v-15h13v39h-13v-15ZM280.7,19.3c-15.1,2.1-12.3,23.9,2.5,22.6,16-1.5,13.5-24.8-2.5-22.6Z"/>
  <path class="st0" d="M121.8,12.1l2.1-8h12.4c.2,2.8-1,6.1,1.5,8h27.4v8h-9c3,5.6,5.5,9.2,1.8,15.3-9.8,16.6-59,14.3-58.3-6.7.1-4.1,2.7-5.2,3.6-8.6h-9v-8h27.4ZM114.6,33.8c5.1,6.2,31,6.6,32.4-5.1-2.9-14.4-43.6-8.6-32.4,5.1Z"/>
  <path class="st0" d="M267.9,55.1h13c0,2.4-.8,5.4,1.5,7h36.4v-7h13v30h-61.3c-.2,0-2.5-2.3-2.5-2.5v-27.5h0ZM318.8,71.1h-37.9v5h37.9v-5Z"/>
  <path class="st0" d="M57.5,12.1v8h-18.4c-.9.7-1.3,1-1.3,2.3-.3,9.4,7.9,23.6,17.8,25.8.6.8-3.9,7.9-6,7.6-7.9-3.7-15.2-9.2-18.4-17.6-5.6,8-12.9,14.1-22,17.7-1.6-1.2-6.9-5.6-5.4-7.7,11.7-4.1,20.3-15.4,19.9-28.1H4.6v-8h52.9,0Z"/>
  <path class="st0" d="M218.6,12.1c5.7,1.6.1,19.6-1.2,23.8-3.6,10.9-11.3,24.4-19.2,32.7-1.4,1.5-7.7,7.4-9,8-2.8,1.3-12.1-4.9-10.9-6.5,15.4-10.5,27.9-30,28.9-49h-27.9v-9h39.4,0Z"/>
  <path class="st0" d="M244,10.1v73.5c0,.2,1.5,1.1,1,1.5h-13V10.1h12Z"/>
  <path class="st0" d="M25.6,60.1v17h50.9v9H15.1c-.2,0-2.5-2.3-2.5-2.5v-23.5h13,0Z"/>
  <rect class="st0" x="63.5" y="10.1" width="13" height="53"/>
</svg>