<svg width="112" height="38" viewBox="0 0 112 38" fill="none" xmlns="http://www.w3.org/2000/svg">
<path d="M89.1671 9.07457C89.1671 9.39025 89.213 9.71742 89.3393 10.0274C89.8961 11.4049 91.3138 12.2544 93.1161 11.5369C93.5466 11.3647 105.468 6.56055 105.468 6.56055C105.468 6.56055 100.773 18.4648 100.595 18.9068C99.912 20.6115 100.733 22.1555 102.128 22.6721C102.438 22.7869 102.759 22.8443 103.075 22.8385C104.217 22.8328 105.221 22.1612 105.715 20.8181C105.79 20.6172 111.661 4.49424 111.788 4.10967C111.862 3.88008 112 3.34054 112 2.96746C112 2.16963 111.707 1.41772 111.139 0.849485C110.582 0.286988 109.836 0 109.05 0C108.665 0 108.355 0.0688772 107.885 0.218111C107.603 0.309947 92.4675 5.94066 91.1761 6.4228C89.8846 6.90494 89.1671 7.93809 89.1729 9.07457" fill="white"/>
<path d="M60.8075 18.1664V17.822H51.6295V20.1695H56.9618C55.5728 24.5662 50.6078 27.1491 50.6078 27.1491L51.9337 29.003C51.9337 29.003 60.8075 25.3411 60.8075 18.1606V18.1664Z" fill="white"/>
<path d="M57.9083 33.7556V29.1924H54.6538V34.3353C54.6538 35.9424 55.9338 37.1018 57.6902 37.1018H67.775V34.76H59.0447C58.2527 34.76 57.9197 34.4443 57.9025 33.7556H57.9083Z" fill="white"/>
<path d="M60.4398 22.1498V24.4973H64.3141V30.1567H67.5686V17.5752H64.3141V22.1498H60.4398Z" fill="white"/>
<path d="M88.4851 27.0056H91.7396V17.4776H88.4851V20.445H85.0929V22.7639H88.4851V27.0056Z" fill="white"/>
<path d="M15.4863 29.0145H3.09987V34.3353C3.09987 35.9424 4.37984 37.1018 6.13622 37.1018H16.2095V29.7377C16.2095 29.3359 15.8824 29.0145 15.4863 29.0145ZM12.9551 34.76H7.49081C6.69872 34.76 6.36007 34.4501 6.34859 33.7556V31.3678H12.9551V34.76Z" fill="white"/>
<path d="M16.4273 17.8564V17.7474H2.92155V20.0949H13.0236C13.0236 20.2499 13.0236 20.445 13.0236 20.6345C13.0236 22.8156 12.9145 24.2505 12.8571 24.836H0V27.1835H19.808V24.836H15.7557C15.9509 24.1013 16.433 21.8283 16.433 17.8564H16.4273Z" fill="white"/>
<path d="M36.6541 30.1969C39.3576 29.6057 41.355 27.5796 41.355 25.1804C41.355 23.8889 40.7753 22.7065 39.8225 21.7939H43.2779V19.4463H36.6541V17.2308H33.4054V19.4463H26.7817V21.7939H30.2371C29.2843 22.7065 28.7045 23.8832 28.7045 25.1804C28.7045 27.5853 30.702 29.6057 33.4112 30.1969V32.5732H25.1344V34.9207H44.9367V32.5732H36.6599V30.1969H36.6541ZM32.0451 25.1057C32.0451 23.5043 33.3825 22.1957 35.024 22.1957C36.6656 22.1957 38.003 23.4986 38.003 25.1057C38.003 26.7129 36.6656 28.0158 35.024 28.0158C33.3825 28.0158 32.0451 26.7129 32.0451 25.1057Z" fill="white"/>
<path d="M82.2628 26.8047H85.4139C85.2819 26.0413 84.1282 19.8768 81.1263 17.7416H77.493L74.6977 26.8793H77.9636L79.8233 20.3016C81.3903 22.1383 82.1537 26.202 82.257 26.8047H82.2628Z" fill="white"/>
<path d="M82.911 34.8404C82.0845 34.8404 81.9353 34.628 81.9353 33.9278V33.635H91.7446V28.6988C91.7446 28.2741 91.4346 27.9412 90.9927 27.9412H78.7382V30.2026H88.6279V31.4137H78.8243V34.3353C78.8243 36.0285 80.0411 37.1018 81.8607 37.1018H91.9569V34.8404H82.911Z" fill="white"/>
</svg>
