<svg width="112" height="38" viewBox="0 0 112 38" fill="none" xmlns="http://www.w3.org/2000/svg">
<path d="M89.1672 9.07457C89.1672 9.39025 89.2131 9.71742 89.3394 10.0274C89.8962 11.4049 91.3139 12.2544 93.1162 11.5369C93.5467 11.3647 105.468 6.56055 105.468 6.56055C105.468 6.56055 100.773 18.4648 100.595 18.9068C99.9121 20.6115 100.733 22.1555 102.128 22.6721C102.438 22.7869 102.759 22.8443 103.075 22.8385C104.217 22.8328 105.221 22.1612 105.715 20.8181C105.79 20.6172 111.661 4.49424 111.788 4.10967C111.862 3.88008 112 3.34054 112 2.96746C112 2.16963 111.707 1.41772 111.139 0.849485C110.582 0.286988 109.836 0 109.05 0C108.665 0 108.355 0.0688772 107.885 0.218111C107.603 0.309947 92.4676 5.94066 91.1762 6.4228C89.8847 6.90494 89.1672 7.93809 89.173 9.07457" fill="#1D1D1D"/>
<path d="M60.8075 18.1664V17.822H51.6296V20.1695H56.9619C55.5728 24.5662 50.6079 27.1491 50.6079 27.1491L51.9338 29.003C51.9338 29.003 60.8075 25.3411 60.8075 18.1606V18.1664Z" fill="#1D1D1D"/>
<path d="M57.9083 33.7556V29.1924H54.6538V34.3353C54.6538 35.9424 55.9338 37.1018 57.6902 37.1018H67.775V34.76H59.0447C58.2527 34.76 57.9197 34.4443 57.9025 33.7556H57.9083Z" fill="#1D1D1D"/>
<path d="M60.4397 22.1498V24.4973H64.3141V30.1567H67.5685V17.5752H64.3141V22.1498H60.4397Z" fill="#1D1D1D"/>
<path d="M88.4852 27.0056H91.7397V17.4776H88.4852V20.445H85.093V22.7639H88.4852V27.0056Z" fill="#1D1D1D"/>
<path d="M15.4863 29.0145H3.09985V34.3353C3.09985 35.9424 4.37983 37.1018 6.1362 37.1018H16.2095V29.7377C16.2095 29.3359 15.8824 29.0145 15.4863 29.0145ZM12.9551 34.76H7.49079C6.6987 34.76 6.36005 34.4501 6.34857 33.7556V31.3678H12.9551V34.76Z" fill="#1D1D1D"/>
<path d="M16.4273 17.8564V17.7474H2.92155V20.0949H13.0236C13.0236 20.2499 13.0236 20.445 13.0236 20.6345C13.0236 22.8156 12.9145 24.2505 12.8571 24.836H0V27.1835H19.808V24.836H15.7557C15.9509 24.1013 16.433 21.8283 16.433 17.8564H16.4273Z" fill="#1D1D1D"/>
<path d="M36.654 30.1969C39.3575 29.6057 41.3549 27.5796 41.3549 25.1804C41.3549 23.8889 40.7752 22.7065 39.8224 21.7939H43.2777V19.4463H36.654V17.2308H33.4053V19.4463H26.7816V21.7939H30.2369C29.2841 22.7065 28.7044 23.8832 28.7044 25.1804C28.7044 27.5853 30.7019 29.6057 33.4111 30.1969V32.5732H25.1343V34.9207H44.9365V32.5732H36.6598V30.1969H36.654ZM32.045 25.1057C32.045 23.5043 33.3824 22.1957 35.0239 22.1957C36.6655 22.1957 38.0029 23.4986 38.0029 25.1057C38.0029 26.7129 36.6655 28.0158 35.0239 28.0158C33.3824 28.0158 32.045 26.7129 32.045 25.1057Z" fill="#1D1D1D"/>
<path d="M82.2628 26.8047H85.4139C85.2819 26.0413 84.1282 19.8768 81.1263 17.7416H77.493L74.6978 26.8793H77.9637L79.8234 20.3016C81.3904 22.1383 82.1537 26.202 82.2571 26.8047H82.2628Z" fill="#1D1D1D"/>
<path d="M82.9111 34.8404C82.0846 34.8404 81.9353 34.628 81.9353 33.9278V33.635H91.7446V28.6988C91.7446 28.2741 91.4347 27.9412 90.9927 27.9412H78.7383V30.2026H88.6279V31.4137H78.8244V34.3353C78.8244 36.0285 80.0412 37.1018 81.8607 37.1018H91.957V34.8404H82.9111Z" fill="#1D1D1D"/>
</svg>
