<svg xmlns="http://www.w3.org/2000/svg" xmlns:xlink="http://www.w3.org/1999/xlink" width="137.532" height="37.139" viewBox="0 0 137.532 37.139">
  <defs>
    <clipPath id="clip-path">
      <rect id="사각형_29" data-name="사각형 29" width="137.532" height="37.139" transform="translate(0 0)" fill="none"/>
    </clipPath>
  </defs>
  <g id="logo" transform="translate(0 0)">
    <g id="그룹_1" data-name="그룹 1" clip-path="url(#clip-path)">
      <path id="패스_1" data-name="패스 1" d="M36.659,5.377s-16.055-7.962-12,3.115,9.3,14.44-2.571,25.022c0,0,5.241-5.044-3.264-16.615,0,0,7.813,16.456-3.66,19.621S0,29.674,0,29.674s4.351,4.483,10.544,4.207c2.437-.109,2.707-1.957,1.74-4.2C10.2,24.856,6.854,15.747,8.538,10.273,10.912,2.558,27.857-5.7,36.659,5.377" fill="#317039"/>
      <rect id="사각형_28" data-name="사각형 28" width="5.463" height="26.368" transform="translate(34.02 10.277)"/>
      <path id="패스_2" data-name="패스 2" d="M48.817,10.277l7.338,17.864h.31l7.321-17.864h6.756V36.645H65.224V19.364h-.219L58.122,36.518h-3.66L47.6,19.327h-.218V36.645h-5.3V10.277Z"/>
      <path id="패스_3" data-name="패스 3" d="M73.138,10.277H83.445a10.845,10.845,0,0,1,5.089,1.12,7.67,7.67,0,0,1,3.251,3.141A9.493,9.493,0,0,1,92.9,19.182a9.25,9.25,0,0,1-1.129,4.634,7.79,7.79,0,0,1-3.3,3.114,11.09,11.09,0,0,1-5.154,1.12H76.689V23.643h5.773a5.8,5.8,0,0,0,2.667-.555,3.644,3.644,0,0,0,1.612-1.557,4.969,4.969,0,0,0,.528-2.349,4.913,4.913,0,0,0-.528-2.34,3.555,3.555,0,0,0-1.621-1.53,6.03,6.03,0,0,0-2.677-.537H78.6v21.87H73.138Z"/>
      <path id="패스_4" data-name="패스 4" d="M117.026,30.727a11.227,11.227,0,0,1-4.389,4.671,13.225,13.225,0,0,1-12.655,0,11.209,11.209,0,0,1-4.389-4.68A15.537,15.537,0,0,1,94,23.461a15.585,15.585,0,0,1,1.593-7.275,11.153,11.153,0,0,1,4.389-4.67,13.29,13.29,0,0,1,12.655,0,11.159,11.159,0,0,1,4.389,4.67,15.6,15.6,0,0,1,1.593,7.275,15.536,15.536,0,0,1-1.593,7.266m-4.771-12a6.45,6.45,0,0,0-2.358-2.959,6.357,6.357,0,0,0-3.587-1.011,6.277,6.277,0,0,0-3.56,1.011,6.577,6.577,0,0,0-2.368,2.959,11.846,11.846,0,0,0-.847,4.734,11.73,11.73,0,0,0,.847,4.708,6.648,6.648,0,0,0,2.368,2.959,6.341,6.341,0,0,0,3.56,1.038,6.421,6.421,0,0,0,3.587-1.038,6.518,6.518,0,0,0,2.358-2.959,11.973,11.973,0,0,0,.829-4.708,12.091,12.091,0,0,0-.829-4.734"/>
      <path id="패스_5" data-name="패스 5" d="M120.724,10.277h5.463V32.129h11.345v4.516H120.724Z"/>
    </g>
  </g>
</svg>
