<svg xmlns="http://www.w3.org/2000/svg" width="84" height="84" viewBox="0 0 84 84">
  <g id="그룹_5" data-name="그룹 5" transform="translate(17211 -12797)">
    <rect id="사각형_64" data-name="사각형 64" width="84" height="84" transform="translate(-17211 12797)" fill="none"/>
    <g id="그룹_4" data-name="그룹 4" transform="translate(-17209.354 12798.646)">
      <path id="패스_1" data-name="패스 1" d="M42.32,53.686A12.06,12.06,0,0,1,30.1,41.352a12.364,12.364,0,0,1,24.722.253A12.139,12.139,0,0,1,42.32,53.686M37.288,41.613A4.915,4.915,0,0,0,42.349,46.6a4.924,4.924,0,0,0,5.239-5.117,5.151,5.151,0,0,0-10.3.128" transform="translate(-3.439 -3.35)" fill="#232077"/>
      <path id="패스_2" data-name="패스 2" d="M12.7,86.584c-4.3.04-6-2.8-4.331-5.68a7.727,7.727,0,0,1,1.433-1.686A98.553,98.553,0,0,0,26.856,58.35a6.118,6.118,0,0,1,4.234-2.6c3.02-.149,4.756,3.023,3.175,6a71.289,71.289,0,0,1-7.163,11.2A134.348,134.348,0,0,1,16.437,84.279a16.1,16.1,0,0,1-3.733,2.3" transform="translate(-0.884 -6.367)" fill="#232077"/>
      <path id="패스_3" data-name="패스 3" d="M74.86,82.51c-2.042-1.047-3.783-1.528-4.965-2.617-5.682-5.233-11.3-10.543-16.756-16.012a4.925,4.925,0,0,1-.163-7.136c1.834-1.6,4.479-1.116,6.752,1.1,5.679,5.545,11.482,10.965,17.023,16.642a5.973,5.973,0,0,1,1.43,4.645c-.26,1.265-2.095,2.206-3.322,3.374" transform="translate(-5.886 -6.373)" fill="#232077"/>
      <path id="패스_4" data-name="패스 4" d="M66.926,41.832A29.183,29.183,0,0,1,62.8,41.8a3.9,3.9,0,0,1-3.644-4.122c-.016-2.24,1.3-3.527,3.508-3.8,6.529-.818,13.057-1.654,19.6-2.379,2.283-.253,4.367.325,4.894,2.965.516,2.587-1.045,4.2-3.288,4.687-5.58,1.217-11.225,2.136-16.844,3.175l-.093-.485" transform="translate(-6.759 -3.589)" fill="#232077"/>
      <path id="패스_5" data-name="패스 5" d="M19.462,43.21c-5.33-1.268-10.682-2.454-15.981-3.842C1.1,38.744-.544,37.109.166,34.444c.743-2.787,3-3.318,5.562-2.815,4.873.958,9.725,2.021,14.606,2.935,3.5.655,4.96,1.924,4.607,4.42-.442,3.122-2.722,3.7-5.479,4.225" transform="translate(0 -3.592)" fill="#232077"/>
      <path id="패스_6" data-name="패스 6" d="M51.745,9.214c-.351,3.485-.592,6.984-1.085,10.448-.488,3.433-2.234,4.924-4.939,4.585-2.678-.336-3.806-2.294-3.487-5.724.363-3.91.577-7.834.9-11.747.113-1.368-.05-3.027.663-4.007C44.731,1.487,46.461-.08,47.749,0c1.307.084,3.1,1.817,3.584,3.207.621,1.8.151,3.975.151,5.989l.261.016" transform="translate(-4.82 0.001)" fill="#232077"/>
      <path id="패스_7" data-name="패스 7" d="M38.944,75.49c.65-4.3,1.264-8.6,1.966-12.884.339-2.07,1.577-3.283,3.774-2.953,2.38.358,3.1,2.11,2.848,4.216-.485,4.1-1.115,8.193-1.71,12.285-.33,2.272-1.455,3.873-3.968,3.589-2.443-.275-2.906-2.131-2.91-4.253" transform="translate(-4.448 -6.807)" fill="#f8b131"/>
      <path id="패스_8" data-name="패스 8" d="M62.761,46.51a22.929,22.929,0,0,1,2.475.628c3.927,1.6,7.855,3.206,11.757,4.87,2.112.9,3.344,2.5,2.411,4.8-.954,2.352-3.01,2.024-4.881,1.268-4.128-1.67-8.285-3.3-12.261-5.284a4.316,4.316,0,0,1-1.934-3.465c.11-1.079,1.681-2.01,2.433-2.816" transform="translate(-6.891 -5.312)" fill="#f8b131"/>
      <path id="패스_9" data-name="패스 9" d="M58.123,28.757c-.418-.361-1.75-.983-2.094-1.954a3.954,3.954,0,0,1,.5-3.472,106.876,106.876,0,0,1,9.8-8.063,3.784,3.784,0,0,1,3.485.09,4.149,4.149,0,0,1,1.388,3.214c-.172,2.838-9.354,10.273-13.082,10.185" transform="translate(-6.382 -1.699)" fill="#f8b131"/>
      <path id="패스_10" data-name="패스 10" d="M12.5,58.384c-.988-1-2.8-2.032-3.092-3.387a4.578,4.578,0,0,1,1.978-3.97A35.676,35.676,0,0,1,21.1,48.372c1.245-.149,3.4,1.355,3.878,2.593.394,1.012-.722,3.535-1.79,4.019-3.137,1.422-6.584,2.16-10.68,3.4" transform="translate(-1.072 -5.523)" fill="#f8b131"/>
      <path id="패스_11" data-name="패스 11" d="M37.3,22.722c-.939,1.244-1.416,2.535-2.161,2.714-1.212.291-3.376.322-3.78-.353A105.557,105.557,0,0,1,25.37,13.358c-.288-.652.617-2.435,1.391-2.8.957-.446,3.042-.409,3.447.205,2.533,3.835,4.733,7.89,7.091,11.955" transform="translate(-2.892 -1.17)" fill="#f8b131"/>
      <path id="패스_12" data-name="패스 12" d="M24.431,29.988c-1.989.035-7.082-4.46-7.283-6.428C16.94,21.524,18.833,20,20.67,21.114A25.773,25.773,0,0,1,26.6,26.176c1.251,1.436-.249,3.778-2.167,3.811" transform="translate(-1.956 -2.367)" fill="#f8b131"/>
    </g>
  </g>
</svg>
