<svg width="110" height="21" viewBox="0 0 110 21" fill="none" xmlns="http://www.w3.org/2000/svg">
<g clip-path="url(#clip0_48_2239)">
<path d="M28.8056 18.3971C29.3299 18.7877 30.0185 18.983 30.8717 18.983H35.9906C36.8541 18.983 37.5462 18.7843 38.0636 18.3834C38.581 17.9826 38.8414 17.3761 38.8414 16.5641C38.8414 15.752 38.5775 15.1181 38.0567 14.7207C37.5325 14.3267 36.8438 14.1279 35.9906 14.1279H30.8717C30.0083 14.1279 29.3162 14.3301 28.7988 14.7378C28.278 15.1456 28.021 15.752 28.021 16.5641C28.021 17.3761 28.2814 18.0065 28.8056 18.3971ZM31.0259 15.2209H35.8365C36.371 15.2209 36.7856 15.3203 37.0768 15.5122C37.368 15.7075 37.5154 16.057 37.5154 16.5606C37.5154 17.4549 36.9534 17.9037 35.833 17.9037H31.0225C29.9021 17.9037 29.3401 17.4583 29.3401 16.5606C29.3401 15.6629 29.8986 15.2175 31.0225 15.2175L31.0259 15.2209Z" fill="#1D1D1D"/>
<path d="M39.3216 12.0924H34.0793V10.8144H37.9785C38.1326 10.8144 38.2628 10.7596 38.3622 10.6534C38.4616 10.5471 38.5164 10.4135 38.5164 10.2593C38.5164 10.1154 38.465 9.98864 38.3622 9.88243C38.2594 9.77621 38.1326 9.72139 37.9785 9.72139H29.6525V7.3161H37.9785C38.1326 7.3161 38.2628 7.26471 38.3622 7.16192C38.465 7.05913 38.5164 6.92893 38.5164 6.77817C38.5164 6.63426 38.465 6.50749 38.3622 6.40127C38.2594 6.29506 38.1326 6.24023 37.9785 6.24023H28.9912C28.8164 6.24023 28.6657 6.30533 28.5355 6.43211C28.4053 6.56231 28.3436 6.71649 28.3436 6.90152V10.1565C28.3436 10.3416 28.4087 10.4992 28.5355 10.6259C28.6657 10.7561 28.8164 10.8178 28.9912 10.8178H32.767V12.0958H27.5418C27.3979 12.0958 27.2712 12.1507 27.1649 12.2569C27.0587 12.3631 27.0039 12.4899 27.0039 12.6338C27.0039 12.788 27.0587 12.9182 27.1649 13.0278C27.2746 13.134 27.3979 13.1888 27.5418 13.1888H39.3216C39.4655 13.1888 39.5923 13.134 39.6985 13.0278C39.8081 12.9182 39.8595 12.788 39.8595 12.6338C39.8595 12.4899 39.8047 12.3631 39.6985 12.2569C39.5923 12.1472 39.4655 12.0958 39.3216 12.0958V12.0924Z" fill="#1D1D1D"/>
<path d="M53.441 11.5986H41.6612C41.5173 11.5986 41.3905 11.6535 41.2843 11.7597C41.1781 11.8693 41.1233 11.9927 41.1233 12.1366C41.1233 12.2908 41.1781 12.421 41.2843 12.5203C41.394 12.6231 41.5173 12.6745 41.6612 12.6745H46.8864V13.8943H42.8604C42.7165 13.8943 42.5898 13.9457 42.4835 14.0485C42.3773 14.1513 42.3225 14.2815 42.3225 14.4322C42.3225 14.5761 42.3773 14.7029 42.4835 14.8091C42.5932 14.9153 42.7165 14.9701 42.8604 14.9701H51.464V15.8953H42.9838C42.7988 15.8953 42.6412 15.9604 42.5144 16.0871C42.3842 16.2173 42.3225 16.3715 42.3225 16.5565V18.3314C42.3225 18.5164 42.3876 18.674 42.5144 18.8008C42.6412 18.9276 42.7988 18.9927 42.9838 18.9927H52.2349C52.3891 18.9927 52.5193 18.9378 52.6186 18.8316C52.718 18.7254 52.7728 18.5986 52.7728 18.4547C52.7728 18.3005 52.7214 18.1703 52.6186 18.0607C52.5158 17.9511 52.3891 17.8997 52.2349 17.8997H43.6314V16.9917H52.1252C52.3 16.9917 52.4508 16.9266 52.581 16.793C52.7112 16.6593 52.7728 16.5051 52.7728 16.3304V14.5419C52.7728 14.3671 52.7077 14.2164 52.581 14.0862C52.4508 13.956 52.3 13.8943 52.1252 13.8943H48.2089V12.6745H53.4341C53.578 12.6745 53.7048 12.6231 53.811 12.5203C53.9206 12.4175 53.972 12.2908 53.972 12.1366C53.972 11.9927 53.9172 11.8659 53.811 11.7597C53.7048 11.6535 53.578 11.5986 53.4341 11.5986H53.441Z" fill="#1D1D1D"/>
<path d="M43.1277 10.7224H51.9951C52.1698 10.7224 52.3206 10.6573 52.4508 10.5305C52.581 10.4003 52.6426 10.2461 52.6426 10.0611V6.89859C52.6426 6.71357 52.5775 6.55595 52.4508 6.42918C52.3206 6.30241 52.1698 6.2373 51.9951 6.2373H43.1277C42.9427 6.2373 42.7851 6.30241 42.6583 6.42918C42.5281 6.55938 42.4664 6.71357 42.4664 6.89859V10.0611C42.4664 10.2461 42.5315 10.4037 42.6583 10.5305C42.7885 10.6607 42.9427 10.7224 43.1277 10.7224ZM43.7753 7.31317H51.3304V9.63965H43.7753V7.31317Z" fill="#1D1D1D"/>
<path d="M67.5644 17.2906H62.3392V13.8231H66.2384C66.4234 13.8231 66.581 13.758 66.7078 13.6313C66.838 13.5011 66.8997 13.3469 66.8997 13.1619V6.91223C66.8997 6.73748 66.8346 6.58672 66.7078 6.45652C66.5776 6.32975 66.4234 6.26465 66.2384 6.26465C66.0534 6.26465 65.8957 6.32975 65.769 6.45652C65.6388 6.58672 65.5771 6.73748 65.5771 6.91223V8.83783H57.7582V6.91223C57.7582 6.73748 57.6897 6.58672 57.5595 6.45652C57.4258 6.32975 57.2717 6.26465 57.0969 6.26465C56.9119 6.26465 56.7543 6.32975 56.6275 6.45652C56.4973 6.58672 56.4356 6.73748 56.4356 6.91223V13.1584C56.4356 13.3435 56.5007 13.5011 56.6275 13.6278C56.7577 13.758 56.9119 13.8197 57.0969 13.8197H61.0132V17.2872H55.7881C55.6442 17.2872 55.5174 17.342 55.4112 17.4482C55.3049 17.5544 55.2501 17.688 55.2501 17.8422C55.2501 17.9861 55.3049 18.1129 55.4112 18.2191C55.5208 18.3253 55.6442 18.3802 55.7881 18.3802H67.5678C67.7117 18.3802 67.8385 18.3253 67.9447 18.2191C68.0543 18.1095 68.1057 17.9861 68.1057 17.8422C68.1057 17.688 68.0509 17.5578 67.9447 17.4482C67.8385 17.3386 67.7117 17.2872 67.5678 17.2872L67.5644 17.2906ZM57.7582 12.7233V9.91712H65.5771V12.7233H57.7582Z" fill="#1D1D1D"/>
<path d="M70.7406 8.11454H80.8414C81.0161 8.11454 81.1498 8.06314 81.2423 7.96035C81.3348 7.85756 81.3828 7.73421 81.3828 7.59031C81.3519 7.2511 81.1703 7.06265 80.8414 7.01811H76.4454V5.64758C76.4454 5.47283 76.3803 5.32208 76.2535 5.19187C76.1233 5.0651 75.9726 5 75.7978 5C75.6128 5 75.4552 5.0651 75.3284 5.19187C75.1982 5.32208 75.1366 5.47283 75.1366 5.64758V7.01811H70.7406C70.5864 7.01811 70.4562 7.07293 70.3568 7.17915C70.2575 7.28536 70.2026 7.41214 70.2026 7.55604C70.2026 7.71023 70.254 7.84043 70.3568 7.95007C70.4596 8.05972 70.5898 8.11111 70.7406 8.11111V8.11454Z" fill="#1D1D1D"/>
<path d="M81.6877 17.2904H76.4625V14.1005H78.0352C78.6314 14.1005 79.1076 14.0354 79.4708 13.9017C79.9334 13.7475 80.3103 13.4906 80.6049 13.1308C80.8962 12.771 81.0435 12.3702 81.0435 11.9282V11.8356C81.0435 11.075 80.7488 10.5062 80.1561 10.1225C79.5633 9.74216 78.8575 9.55371 78.0352 9.55371H73.5501C73.0464 9.55371 72.5668 9.62566 72.1179 9.76957C71.6656 9.92376 71.2887 10.1807 70.9906 10.5405C70.6926 10.9003 70.5418 11.3011 70.5418 11.7431V11.8356C70.5418 12.5963 70.8399 13.1651 71.4361 13.5385C72.0322 13.9154 72.7346 14.1005 73.5501 14.1005H75.1365V17.2904H69.9113C69.7674 17.2904 69.6407 17.3452 69.5345 17.4514C69.4282 17.5576 69.3734 17.6913 69.3734 17.8454C69.3734 17.9893 69.4282 18.1161 69.5345 18.2223C69.6441 18.3286 69.7674 18.3834 69.9113 18.3834H81.6911C81.835 18.3834 81.9618 18.3286 82.068 18.2223C82.1776 18.1127 82.229 17.9893 82.229 17.8454C82.229 17.6913 82.1742 17.5611 82.068 17.4514C81.9618 17.3418 81.835 17.2904 81.6911 17.2904H81.6877ZM73.67 13.0177C73.1561 13.0177 72.7278 12.9252 72.3817 12.7402C72.0357 12.5552 71.8644 12.2605 71.8644 11.8631V11.7843C71.8644 11.3731 72.0528 11.0819 72.4263 10.9071C72.7997 10.7324 73.2143 10.6433 73.6666 10.6433H77.9084C78.4224 10.6433 78.8507 10.7358 79.1967 10.9208C79.5428 11.1058 79.7141 11.3937 79.7141 11.7843V11.8631C79.7141 12.2742 79.5291 12.5689 79.159 12.7505C78.789 12.9321 78.3744 13.0212 77.9118 13.0212H73.67V13.0177Z" fill="#1D1D1D"/>
<path d="M95.7048 17.9071H86.6251V15.423C86.6251 15.2482 86.56 15.0975 86.4332 14.9673C86.303 14.8371 86.1488 14.7754 85.9638 14.7754C85.7787 14.7754 85.6211 14.8405 85.4944 14.9673C85.3642 15.0975 85.3025 15.2482 85.3025 15.423V18.3388C85.3025 18.5238 85.3676 18.6814 85.4944 18.8082C85.6211 18.935 85.7787 19.0001 85.9638 19.0001H95.7083C95.8624 19.0001 95.9926 18.9452 96.1023 18.839C96.2085 18.7328 96.2633 18.606 96.2633 18.4621C96.2633 18.3079 96.2085 18.1777 96.1023 18.0681C95.9926 17.9619 95.8624 17.9071 95.7083 17.9071H95.7048Z" fill="#1D1D1D"/>
<path d="M90.723 10.6293H92.2203V13.48C92.2203 13.665 92.2854 13.8226 92.419 13.9494C92.5527 14.0796 92.7068 14.1413 92.8816 14.1413C93.0666 14.1413 93.2242 14.0762 93.351 13.9494C93.4812 13.8226 93.5429 13.665 93.5429 13.48V6.72671C93.5429 6.54169 93.4778 6.38408 93.351 6.2573C93.2208 6.13053 93.0666 6.06543 92.8816 6.06543C92.7068 6.06543 92.5527 6.13053 92.419 6.2573C92.2854 6.38751 92.2203 6.54169 92.2203 6.72671V9.53288H90.723C90.5791 9.53288 90.4523 9.5877 90.3461 9.69392C90.2365 9.80013 90.1851 9.92691 90.1851 10.0708C90.1851 10.225 90.2399 10.3552 90.3461 10.4648C90.4523 10.5711 90.5791 10.6259 90.723 10.6259V10.6293Z" fill="#1D1D1D"/>
<path d="M95.1018 14.4497C95.2869 14.4497 95.4445 14.3846 95.5712 14.2509C95.7014 14.1173 95.7631 13.9631 95.7631 13.7884V6.72671C95.7631 6.54169 95.698 6.38408 95.5712 6.2573C95.441 6.13053 95.2869 6.06543 95.1018 6.06543C94.9168 6.06543 94.7592 6.13053 94.6324 6.2573C94.5022 6.38751 94.4406 6.54169 94.4406 6.72671V13.7884C94.4406 13.9631 94.5057 14.1173 94.6324 14.2509C94.7626 14.3846 94.9168 14.4497 95.1018 14.4497Z" fill="#1D1D1D"/>
<path d="M84.2952 13.3736C84.398 13.3736 84.4905 13.353 84.5727 13.3119C85.1483 13.0549 85.652 12.6814 86.0837 12.1949C86.5154 11.7084 86.8512 11.1567 87.0945 10.5468C87.3343 9.93695 87.5159 9.31679 87.6359 8.68977C87.7523 8.06275 87.814 7.43573 87.814 6.80871C87.814 6.63397 87.7489 6.48321 87.6221 6.35301C87.4919 6.22623 87.3378 6.16113 87.1527 6.16113H87.139C86.9643 6.17141 86.8135 6.23994 86.6936 6.35986C86.5703 6.48321 86.5086 6.62711 86.5086 6.79158V6.83612C86.5086 7.92569 86.3064 8.98101 85.8987 9.99863C85.491 11.0162 84.8674 11.7221 84.0245 12.1127C83.8703 12.1949 83.7572 12.3183 83.6853 12.4827C83.6545 12.5752 83.6407 12.6575 83.6407 12.7294C83.6407 12.8836 83.7024 13.0309 83.8258 13.168C83.9491 13.305 84.1102 13.377 84.302 13.377L84.2952 13.3736Z" fill="#1D1D1D"/>
<path d="M88.0265 11.0132C88.5507 11.3524 88.9105 11.952 89.1058 12.8154C89.2188 13.1855 89.4313 13.3705 89.7396 13.3705C89.9658 13.3705 90.1439 13.2746 90.2776 13.0793C90.3701 12.9559 90.418 12.8154 90.418 12.6647C90.418 12.5722 90.3906 12.4488 90.3427 12.2946C90.209 11.791 89.9521 11.253 89.5717 10.674C89.1914 10.0984 88.794 9.81055 88.3862 9.81055C88.1909 9.81055 88.0333 9.87907 87.9168 10.0196C87.8003 10.16 87.7386 10.3313 87.7386 10.5369C87.7695 10.7528 87.8688 10.9138 88.0333 11.0166L88.0265 11.0132Z" fill="#1D1D1D"/>
<path d="M105.131 17.4511C105.021 17.3415 104.891 17.2901 104.737 17.2901H100.125V12.8633H103.839C103.993 12.8633 104.123 12.8084 104.233 12.7022C104.343 12.596 104.394 12.4692 104.394 12.3253C104.394 12.1712 104.339 12.0444 104.233 11.9416C104.127 11.8388 103.993 11.7874 103.839 11.7874H100.125V7.34345H103.839C103.993 7.34345 104.123 7.28863 104.233 7.18241C104.343 7.07619 104.394 6.94942 104.394 6.80551C104.394 6.65133 104.339 6.52455 104.233 6.42176C104.127 6.31897 103.993 6.26758 103.839 6.26758H99.4772C99.2922 6.26758 99.1346 6.33268 99.0078 6.45945C98.8776 6.58965 98.8159 6.74041 98.8159 6.91516V17.7218C98.8159 17.9068 98.881 18.0644 99.0078 18.1912C99.138 18.3214 99.2922 18.3831 99.4772 18.3831H104.733C104.887 18.3831 105.018 18.3283 105.127 18.2221C105.237 18.1124 105.288 17.9891 105.288 17.8452C105.288 17.691 105.233 17.5608 105.127 17.4511H105.131Z" fill="#1D1D1D"/>
<path d="M109.232 6.2573C109.102 6.13053 108.948 6.06543 108.763 6.06543C108.588 6.06543 108.437 6.13053 108.307 6.2573C108.177 6.38751 108.115 6.54169 108.115 6.72671V11.8319H106.419C106.275 11.8319 106.148 11.8833 106.042 11.9861C105.932 12.0889 105.881 12.2157 105.881 12.3699C105.881 12.5138 105.936 12.6406 106.042 12.7468C106.148 12.853 106.275 12.9078 106.419 12.9078H108.115V18.3351C108.115 18.5202 108.18 18.6778 108.307 18.8045C108.434 18.9313 108.588 18.9964 108.763 18.9964C108.948 18.9964 109.105 18.9313 109.232 18.8045C109.362 18.6743 109.424 18.5202 109.424 18.3351V6.72671C109.424 6.54169 109.359 6.38408 109.232 6.2573Z" fill="#1D1D1D"/>
</g>
<g clip-path="url(#clip1_48_2239)">
<path d="M8.57318 14.3953C9.00144 14.3953 9.34862 13.9441 9.34862 13.3876C9.34862 12.831 9.00144 12.3799 8.57318 12.3799C8.14491 12.3799 7.79773 12.831 7.79773 13.3876C7.79773 13.9441 8.14491 14.3953 8.57318 14.3953Z" fill="#0171B9"/>
<path d="M20.7164 8.76988C20.5786 8.60849 20.3858 8.46285 20.1102 8.37625C20.0079 8.34476 19.9016 8.33295 19.7953 8.33295C19.2009 8.33295 16.8864 8.31327 15.9693 8.30934C15.6229 8.30934 15.2844 8.21093 14.9931 8.02199C14.5837 7.75432 14.1428 7.16388 13.6823 6.48684C12.958 5.42798 12.0645 4.86903 11.6079 4.6486C11.3717 4.53445 11.1119 4.47541 10.8482 4.47934L6.17977 4.5069L1.49954 0.220299C1.37752 0.106148 1.224 0.0313584 1.05868 0.011677C0.76346 -0.0276857 0.310789 -0.00013179 0.117912 0.464348C0.074613 0.570627 0.0549316 0.688716 0.0549316 0.802867V9.09659C0.0549316 9.35638 0.192701 9.5965 0.421005 9.72639C0.676862 9.87203 1.04687 9.96257 1.46018 9.6949C1.66093 9.56894 1.77902 9.34457 1.77902 9.1084V6.84504C1.77902 6.57738 1.96009 6.32939 2.21988 6.27428C2.36159 6.24279 2.51904 6.26641 2.65287 6.41993L5.21144 9.54532C5.30592 9.66341 5.44762 9.73426 5.5972 9.74214L8.09673 9.8681C8.09673 9.8681 9.30517 9.7382 11.293 12.8675C11.415 13.0604 11.6276 13.1785 11.8559 13.1785H13.2021C13.6823 13.1785 14.0799 13.5839 14.0405 14.0602C14.0405 14.0838 14.0366 14.1075 14.0326 14.135C14.0326 14.135 13.6233 17.8272 10.4782 20.1772C10.4782 20.1772 10.1278 20.8897 10.8088 20.9448C11.4701 20.9959 19.5788 20.7204 20.744 13.5367C20.8227 13.0644 20.929 12.5959 20.9447 12.1157L21.0234 9.69884C21.0353 9.36426 20.9329 9.03361 20.7164 8.77775V8.76988ZM11.4032 10.5018C10.8167 10.5018 10.3365 9.87991 10.3365 9.11627C10.3365 8.35263 10.8128 7.7307 11.4032 7.7307C11.9936 7.7307 12.4699 8.35263 12.4699 9.11627C12.4699 9.87991 11.9936 10.5018 11.4032 10.5018Z" fill="#0171B9"/>
<path d="M7.54974 15.8322C7.54974 15.8322 7.03015 12.3525 3.88507 12.38C0.739991 12.4076 0.110188 15.226 0.110188 15.226L-2.77205e-05 20.473C-2.77205e-05 20.473 -0.0393904 20.9454 0.425089 21.0005H6.82546C7.06164 21.0005 7.28994 20.8863 7.41984 20.6895C7.47101 20.6108 7.50644 20.5163 7.49463 20.4179C7.46708 20.0912 7.41197 17.9892 10.187 18.2923C10.187 18.2923 10.6397 16.8005 7.54974 15.8322ZM5.00691 17.6232C4.60934 17.6232 4.29051 17.2059 4.29051 16.6903C4.29051 16.1746 4.61328 15.7574 5.00691 15.7574C5.40053 15.7574 5.72331 16.1746 5.72331 16.6903C5.72331 17.2059 5.40053 17.6232 5.00691 17.6232Z" fill="#0171B9"/>
</g>
<defs>
<clipPath id="clip0_48_2239">
<rect width="82.4273" height="14" fill="white" transform="translate(27 5)"/>
</clipPath>
<clipPath id="clip1_48_2239">
<rect width="21.0236" height="21" fill="white"/>
</clipPath>
</defs>
</svg>
