<svg width="190" height="35" viewBox="0 0 190 35" fill="none" xmlns="http://www.w3.org/2000/svg">
<g clip-path="url(#clip0_48_2238)">
<path d="M51.0956 30.9661C51.9942 31.6357 53.1749 31.9705 54.6374 31.9705H63.4127C64.8929 31.9705 66.0794 31.6298 66.9663 30.9426C67.8533 30.2554 68.2997 29.2157 68.2997 27.8237C68.2997 26.4316 67.8474 25.345 66.9546 24.6636C66.0559 23.9881 64.8753 23.6475 63.4127 23.6475H54.6374C53.1572 23.6475 51.9708 23.994 51.0838 24.693C50.191 25.392 49.7505 26.4316 49.7505 27.8237C49.7505 29.2157 50.1969 30.2965 51.0956 30.9661ZM54.9017 25.5212H63.1484C64.0647 25.5212 64.7754 25.6915 65.2747 26.0204C65.774 26.3552 66.0266 26.9544 66.0266 27.8178C66.0266 29.3508 65.0633 30.1203 63.1426 30.1203H54.8959C52.9752 30.1203 52.0119 29.3567 52.0119 27.8178C52.0119 26.2789 52.9693 25.5153 54.8959 25.5153L54.9017 25.5212Z" fill="white"/>
<path d="M69.1219 20.1585H60.1351V17.9676H66.8194C67.0837 17.9676 67.3069 17.8737 67.4772 17.6916C67.6476 17.5095 67.7415 17.2804 67.7415 17.0161C67.7415 16.7694 67.6534 16.5521 67.4772 16.37C67.301 16.1879 67.0837 16.0939 66.8194 16.0939H52.5462V11.9706H66.8194C67.0837 11.9706 67.3069 11.8825 67.4772 11.7063C67.6534 11.53 67.7415 11.3068 67.7415 11.0484C67.7415 10.8017 67.6534 10.5844 67.4772 10.4023C67.301 10.2202 67.0837 10.1262 66.8194 10.1262H51.4126C51.1131 10.1262 50.8546 10.2378 50.6314 10.4551C50.4082 10.6783 50.3025 10.9427 50.3025 11.2598V16.8399C50.3025 17.1571 50.4141 17.4272 50.6314 17.6446C50.8546 17.8678 51.1131 17.9735 51.4126 17.9735H57.8854V20.1644H48.928C48.6813 20.1644 48.464 20.2584 48.2819 20.4405C48.0998 20.6226 48.0059 20.8399 48.0059 21.0866C48.0059 21.3509 48.0998 21.5741 48.2819 21.7621C48.4699 21.9441 48.6813 22.0381 48.928 22.0381H69.1219C69.3686 22.0381 69.5859 21.9441 69.768 21.7621C69.9559 21.5741 70.044 21.3509 70.044 21.0866C70.044 20.8399 69.9501 20.6226 69.768 20.4405C69.5859 20.2525 69.3686 20.1644 69.1219 20.1644V20.1585Z" fill="white"/>
<path d="M93.3274 19.3127H73.1336C72.8869 19.3127 72.6696 19.4067 72.4875 19.5888C72.3054 19.7768 72.2114 19.9882 72.2114 20.2349C72.2114 20.4992 72.3054 20.7224 72.4875 20.8928C72.6754 21.069 72.8869 21.1571 73.1336 21.1571H82.091V23.2481H75.1894C74.9427 23.2481 74.7254 23.3362 74.5433 23.5125C74.3612 23.6887 74.2672 23.9119 74.2672 24.1703C74.2672 24.417 74.3612 24.6343 74.5433 24.8164C74.7312 24.9985 74.9427 25.0925 75.1894 25.0925H89.9383V26.6784H75.4009C75.0837 26.6784 74.8135 26.79 74.5962 27.0073C74.373 27.2305 74.2672 27.4948 74.2672 27.812V30.8546C74.2672 31.1718 74.3788 31.442 74.5962 31.6593C74.8135 31.8766 75.0837 31.9882 75.4009 31.9882H91.2599C91.5242 31.9882 91.7474 31.8942 91.9177 31.7122C92.0881 31.5301 92.1821 31.3127 92.1821 31.066C92.1821 30.8017 92.0939 30.5785 91.9177 30.3906C91.7415 30.2026 91.5242 30.1145 91.2599 30.1145H76.511V28.558H91.0719C91.3715 28.558 91.6299 28.4464 91.8531 28.2173C92.0763 27.9882 92.1821 27.7239 92.1821 27.4243V24.3583C92.1821 24.0587 92.0705 23.8003 91.8531 23.5771C91.6299 23.3539 91.3715 23.2481 91.0719 23.2481H84.3583V21.1571H93.3157C93.5624 21.1571 93.7797 21.069 93.9618 20.8928C94.1497 20.7166 94.2379 20.4992 94.2379 20.2349C94.2379 19.9882 94.1439 19.7709 93.9618 19.5888C93.7797 19.4067 93.5624 19.3127 93.3157 19.3127H93.3274Z" fill="white"/>
<path d="M75.6478 17.8091H90.849C91.1485 17.8091 91.407 17.6975 91.6302 17.4801C91.8534 17.2569 91.9591 16.9926 91.9591 16.6754V11.254C91.9591 10.9368 91.8475 10.6666 91.6302 10.4493C91.407 10.232 91.1485 10.1204 90.849 10.1204H75.6478C75.3306 10.1204 75.0604 10.232 74.8431 10.4493C74.6199 10.6725 74.5142 10.9368 74.5142 11.254V16.6754C74.5142 16.9926 74.6258 17.2628 74.8431 17.4801C75.0663 17.7033 75.3306 17.8091 75.6478 17.8091ZM76.7579 11.9647H89.7095V15.953H76.7579V11.9647Z" fill="white"/>
<path d="M117.539 29.0691H108.581V23.1249H115.266C115.583 23.1249 115.853 23.0133 116.07 22.796C116.294 22.5728 116.399 22.3084 116.399 21.9913V11.2776C116.399 10.9781 116.288 10.7196 116.07 10.4964C115.847 10.2791 115.583 10.1675 115.266 10.1675C114.949 10.1675 114.678 10.2791 114.461 10.4964C114.238 10.7196 114.132 10.9781 114.132 11.2776V14.5786H100.728V11.2776C100.728 10.9781 100.611 10.7196 100.388 10.4964C100.159 10.2791 99.8942 10.1675 99.5946 10.1675C99.2775 10.1675 99.0073 10.2791 98.7899 10.4964C98.5667 10.7196 98.461 10.9781 98.461 11.2776V21.9854C98.461 22.3026 98.5726 22.5728 98.7899 22.7901C99.0131 23.0133 99.2775 23.119 99.5946 23.119H106.308V29.0632H97.3509C97.1042 29.0632 96.8869 29.1572 96.7048 29.3393C96.5227 29.5214 96.4287 29.7504 96.4287 30.0148C96.4287 30.2615 96.5227 30.4788 96.7048 30.6609C96.8927 30.843 97.1042 30.9369 97.3509 30.9369H117.545C117.791 30.9369 118.009 30.843 118.191 30.6609C118.379 30.4729 118.467 30.2615 118.467 30.0148C118.467 29.7504 118.373 29.5272 118.191 29.3393C118.009 29.1513 117.791 29.0632 117.545 29.0632L117.539 29.0691ZM100.728 21.2394V16.4289H114.132V21.2394H100.728Z" fill="white"/>
<path d="M122.984 13.3392H140.299C140.599 13.3392 140.828 13.2511 140.987 13.0749C141.145 12.8987 141.227 12.6872 141.227 12.4405C141.175 11.859 140.863 11.536 140.299 11.4596H132.763V9.11013C132.763 8.81057 132.652 8.55213 132.435 8.32893C132.211 8.1116 131.953 8 131.653 8C131.336 8 131.066 8.1116 130.849 8.32893C130.625 8.55213 130.52 8.81057 130.52 9.11013V11.4596H122.984C122.719 11.4596 122.496 11.5536 122.326 11.7357C122.156 11.9178 122.062 12.1351 122.062 12.3818C122.062 12.6461 122.15 12.8693 122.326 13.0573C122.502 13.2452 122.725 13.3333 122.984 13.3333V13.3392Z" fill="white"/>
<path d="M141.75 29.069H132.793V23.6006H135.489C136.511 23.6006 137.327 23.489 137.95 23.2599C138.743 22.9956 139.389 22.5551 139.894 21.9383C140.393 21.3216 140.646 20.6343 140.646 19.8766V19.718C140.646 18.4141 140.141 17.439 139.125 16.7812C138.109 16.1292 136.899 15.8062 135.489 15.8062H127.8C126.937 15.8062 126.114 15.9295 125.345 16.1762C124.57 16.4405 123.924 16.881 123.413 17.4978C122.902 18.1145 122.643 18.8017 122.643 19.5595V19.718C122.643 21.022 123.154 21.997 124.176 22.6373C125.198 23.2834 126.402 23.6006 127.8 23.6006H130.52V29.069H121.562C121.316 29.069 121.098 29.163 120.916 29.3451C120.734 29.5272 120.64 29.7562 120.64 30.0205C120.64 30.2672 120.734 30.4846 120.916 30.6667C121.104 30.8487 121.316 30.9427 121.562 30.9427H141.756C142.003 30.9427 142.22 30.8487 142.402 30.6667C142.59 30.4787 142.678 30.2672 142.678 30.0205C142.678 29.7562 142.584 29.533 142.402 29.3451C142.22 29.1571 142.003 29.069 141.756 29.069H141.75ZM128.006 21.7445C127.125 21.7445 126.391 21.5859 125.797 21.2687C125.204 20.9515 124.91 20.4464 124.91 19.765V19.6299C124.91 18.9251 125.233 18.4258 125.874 18.1263C126.514 17.8267 127.225 17.674 128 17.674H135.272C136.153 17.674 136.887 17.8326 137.48 18.1498C138.073 18.4669 138.367 18.9603 138.367 19.6299V19.765C138.367 20.4699 138.05 20.975 137.415 21.2863C136.781 21.5976 136.07 21.7504 135.277 21.7504H128.006V21.7445Z" fill="white"/>
<path d="M165.78 30.1264H150.215V25.8679C150.215 25.5684 150.103 25.3099 149.886 25.0867C149.662 24.8635 149.398 24.7578 149.081 24.7578C148.764 24.7578 148.494 24.8694 148.276 25.0867C148.053 25.3099 147.947 25.5684 147.947 25.8679V30.8665C147.947 31.1837 148.059 31.4538 148.276 31.6712C148.494 31.8885 148.764 32.0001 149.081 32.0001H165.786C166.05 32.0001 166.273 31.9061 166.461 31.724C166.643 31.542 166.737 31.3246 166.737 31.0779C166.737 30.8136 166.643 30.5904 166.461 30.4025C166.273 30.2204 166.05 30.1264 165.786 30.1264H165.78Z" fill="white"/>
<path d="M157.24 17.6504H159.806V22.5374C159.806 22.8546 159.918 23.1248 160.147 23.3421C160.376 23.5653 160.64 23.671 160.94 23.671C161.257 23.671 161.527 23.5594 161.745 23.3421C161.968 23.1248 162.074 22.8546 162.074 22.5374V10.9603C162.074 10.6431 161.962 10.3729 161.745 10.1556C161.521 9.93826 161.257 9.82666 160.94 9.82666C160.64 9.82666 160.376 9.93826 160.147 10.1556C159.918 10.3788 159.806 10.6431 159.806 10.9603V15.7709H157.24C156.993 15.7709 156.776 15.8648 156.593 16.0469C156.405 16.229 156.317 16.4463 156.317 16.693C156.317 16.9574 156.411 17.1806 156.593 17.3685C156.776 17.5506 156.993 17.6446 157.24 17.6446V17.6504Z" fill="white"/>
<path d="M164.746 24.1996C165.063 24.1996 165.333 24.088 165.551 23.859C165.774 23.6299 165.88 23.3656 165.88 23.066V10.9603C165.88 10.6431 165.768 10.3729 165.551 10.1556C165.327 9.93826 165.063 9.82666 164.746 9.82666C164.429 9.82666 164.159 9.93826 163.941 10.1556C163.718 10.3788 163.612 10.6431 163.612 10.9603V23.066C163.612 23.3656 163.724 23.6299 163.941 23.859C164.164 24.088 164.429 24.1996 164.746 24.1996Z" fill="white"/>
<path d="M146.22 22.3554C146.396 22.3554 146.555 22.3201 146.696 22.2497C147.683 21.8091 148.546 21.1689 149.286 20.3348C150.026 19.5008 150.602 18.5551 151.019 17.5096C151.43 16.464 151.741 15.4009 151.947 14.326C152.147 13.2511 152.252 12.1762 152.252 11.1013C152.252 10.8018 152.141 10.5433 151.923 10.3201C151.7 10.1028 151.436 9.99121 151.119 9.99121H151.095C150.796 10.0088 150.537 10.1263 150.332 10.3319C150.12 10.5433 150.014 10.79 150.014 11.072V11.1483C150.014 13.0162 149.668 14.8253 148.969 16.5698C148.27 18.3143 147.201 19.5243 145.756 20.1939C145.492 20.3348 145.298 20.5463 145.175 20.8282C145.122 20.9868 145.098 21.1278 145.098 21.2511C145.098 21.5154 145.204 21.768 145.415 22.003C145.627 22.2379 145.903 22.3613 146.232 22.3613L146.22 22.3554Z" fill="white"/>
<path d="M152.617 18.3083C153.516 18.8898 154.132 19.9177 154.467 21.3978C154.661 22.0322 155.025 22.3494 155.554 22.3494C155.941 22.3494 156.247 22.1849 156.476 21.8501C156.635 21.6387 156.717 21.3978 156.717 21.1394C156.717 20.9808 156.67 20.7693 156.588 20.505C156.358 19.6416 155.918 18.7194 155.266 17.7268C154.614 16.74 153.933 16.2466 153.234 16.2466C152.899 16.2466 152.629 16.3641 152.429 16.6049C152.229 16.8457 152.124 17.1394 152.124 17.4918C152.176 17.8619 152.347 18.1379 152.629 18.3141L152.617 18.3083Z" fill="white"/>
<path d="M181.939 29.3451C181.751 29.1572 181.527 29.0691 181.263 29.0691H173.357V21.4802H179.724C179.988 21.4802 180.212 21.3863 180.4 21.2042C180.588 21.0221 180.676 20.8048 180.676 20.5581C180.676 20.2938 180.582 20.0764 180.4 19.9002C180.218 19.724 179.988 19.6359 179.724 19.6359H173.357V12.0177H179.724C179.988 12.0177 180.212 11.9237 180.4 11.7416C180.588 11.5595 180.676 11.3422 180.676 11.0955C180.676 10.8312 180.582 10.6139 180.4 10.4377C180.218 10.2614 179.988 10.1733 179.724 10.1733H172.247C171.93 10.1733 171.66 10.2849 171.442 10.5023C171.219 10.7255 171.113 10.9839 171.113 11.2835V29.8092C171.113 30.1264 171.225 30.3965 171.442 30.6139C171.665 30.8371 171.93 30.9428 172.247 30.9428H181.257C181.521 30.9428 181.745 30.8488 181.933 30.6667C182.121 30.4788 182.209 30.2673 182.209 30.0206C182.209 29.7563 182.115 29.5331 181.933 29.3451H181.939Z" fill="white"/>
<path d="M188.969 10.1556C188.746 9.93826 188.482 9.82666 188.164 9.82666C187.865 9.82666 187.606 9.93826 187.383 10.1556C187.16 10.3788 187.054 10.6431 187.054 10.9603V19.7121H184.147C183.9 19.7121 183.683 19.8002 183.501 19.9764C183.313 20.1527 183.225 20.37 183.225 20.6343C183.225 20.881 183.319 21.0983 183.501 21.2804C183.683 21.4625 183.9 21.5565 184.147 21.5565H187.054V30.8604C187.054 31.1776 187.166 31.4478 187.383 31.6651C187.601 31.8825 187.865 31.9941 188.164 31.9941C188.482 31.9941 188.752 31.8825 188.969 31.6651C189.192 31.4419 189.298 31.1776 189.298 30.8604V10.9603C189.298 10.6431 189.186 10.3729 188.969 10.1556Z" fill="white"/>
</g>
<g clip-path="url(#clip1_48_2238)">
<path d="M14.2885 23.9915C15.0023 23.9915 15.5809 23.2396 15.5809 22.312C15.5809 21.3845 15.0023 20.6326 14.2885 20.6326C13.5747 20.6326 12.9961 21.3845 12.9961 22.312C12.9961 23.2396 13.5747 23.9915 14.2885 23.9915Z" fill="white"/>
<path d="M34.5276 14.6166C34.298 14.3476 33.9765 14.1049 33.5173 13.9606C33.3467 13.9081 33.1696 13.8884 32.9925 13.8884C32.0018 13.8884 28.1443 13.8556 26.6157 13.8491C26.0384 13.8491 25.4742 13.685 24.9887 13.3701C24.3064 12.924 23.5716 11.94 22.8041 10.8116C21.5969 9.0468 20.1077 8.11522 19.3467 7.74784C18.9531 7.55758 18.5201 7.45918 18.0805 7.46574L10.2999 7.51166L2.49948 0.367328C2.29611 0.177075 2.04025 0.0524267 1.76471 0.0196245C1.27268 -0.04598 0.518226 -5.68891e-05 0.196764 0.774076C0.124599 0.951208 0.0917969 1.14802 0.0917969 1.33828V15.1611C0.0917969 15.5941 0.321413 15.9943 0.701919 16.2108C1.12835 16.4536 1.74503 16.6044 2.43388 16.1583C2.76846 15.9484 2.96527 15.5745 2.96527 15.1808V11.4086C2.96527 10.9625 3.26705 10.5491 3.70004 10.4573C3.93622 10.4048 4.19864 10.4442 4.42169 10.7L8.68598 15.909C8.84344 16.1059 9.07961 16.2239 9.32891 16.2371L13.4948 16.447C13.4948 16.447 15.5089 16.2305 18.8219 21.4461C19.0253 21.7675 19.3795 21.9643 19.76 21.9643H22.0037C22.8041 21.9643 23.4667 22.6401 23.4011 23.4339C23.4011 23.4732 23.3945 23.5126 23.388 23.5585C23.388 23.5585 22.7057 29.7122 17.4639 33.6288C17.4639 33.6288 16.88 34.8163 18.0149 34.9081C19.1171 34.9934 32.6316 34.5342 34.5735 22.5613C34.7047 21.7741 34.8819 20.9934 34.9081 20.193L35.0393 16.1649C35.059 15.6073 34.8884 15.0562 34.5276 14.6297V14.6166ZM19.0056 17.5032C18.0281 17.5032 17.2277 16.4667 17.2277 15.1939C17.2277 13.9212 18.0215 12.8847 19.0056 12.8847C19.9896 12.8847 20.7835 13.9212 20.7835 15.1939C20.7835 16.4667 19.9896 17.5032 19.0056 17.5032Z" fill="white"/>
<path d="M12.5829 26.3861C12.5829 26.3861 11.7169 20.5867 6.47508 20.6326C1.23328 20.6785 0.183606 25.3758 0.183606 25.3758L-8.68909e-05 34.1209C-8.68909e-05 34.1209 -0.0656914 34.9081 0.708442 35H11.3757C11.7694 35 12.1499 34.8097 12.3664 34.4817C12.4516 34.3505 12.5107 34.193 12.491 34.029C12.4451 33.4845 12.3532 29.9812 16.9784 30.4864C16.9784 30.4864 17.7328 28 12.5829 26.3861ZM8.3448 29.3711C7.6822 29.3711 7.1508 28.6757 7.1508 27.8163C7.1508 26.9569 7.68876 26.2615 8.3448 26.2615C9.00085 26.2615 9.53881 26.9569 9.53881 27.8163C9.53881 28.6757 9.00085 29.3711 8.3448 29.3711Z" fill="white"/>
</g>
<defs>
<clipPath id="clip0_48_2238">
<rect width="141.304" height="24" fill="white" transform="translate(48 8)"/>
</clipPath>
<clipPath id="clip1_48_2238">
<rect width="35.0394" height="35" fill="white"/>
</clipPath>
</defs>
</svg>
