<svg width="127" height="127" viewBox="0 0 127 127" fill="none" xmlns="http://www.w3.org/2000/svg">
<g clip-path="url(#clip0_132_162)">
<path d="M52.64 11.14L51.05 2.79L48.05 3.36C47.84 3.4 47.65 3.36 47.48 3.24C47.31 3.12 47.21 2.96 47.17 2.76C47.13 2.57 47.17 2.39 47.29 2.22C47.4 2.05 47.57 1.95 47.78 1.91L55.29 0.480004C55.5 0.440004 55.69 0.480004 55.86 0.590004C56.03 0.710004 56.13 0.860004 56.17 1.05C56.21 1.25 56.17 1.44 56.06 1.61C55.95 1.78 55.78 1.89 55.57 1.93L52.54 2.51L54.13 10.86C54.17 11.07 54.13 11.26 54.02 11.42C53.91 11.58 53.75 11.68 53.54 11.72C53.32 11.76 53.13 11.72 52.96 11.62C52.79 11.51 52.69 11.35 52.65 11.15L52.64 11.14Z" fill="white"/>
<path d="M62.84 10.9003C61.26 10.9203 60.05 10.4203 59.2 9.4103C58.35 8.4003 57.92 7.0903 57.9 5.4903C57.88 3.8803 58.29 2.5703 59.12 1.5503C59.95 0.5403 61.15 0.0203 62.73 0.0003C63.8 -0.0097 64.72 0.2303 65.47 0.7203C66.22 1.2103 66.77 1.8603 67.12 2.6503C67.47 3.4503 67.65 4.3703 67.66 5.4003C67.68 7.0203 67.27 8.3303 66.43 9.3503C65.59 10.3703 64.4 10.8803 62.85 10.9003H62.84ZM59.41 5.5203C59.42 6.7503 59.71 7.7203 60.28 8.4103C60.85 9.1003 61.73 9.4503 62.92 9.4303C63.96 9.4203 64.77 9.0603 65.33 8.3503C65.89 7.6403 66.17 6.7503 66.16 5.6703C66.16 5.0603 66.09 4.5203 65.97 4.0303C65.85 3.5503 65.67 3.1103 65.41 2.7103C65.15 2.3103 64.8 2.0003 64.34 1.7803C63.88 1.5603 63.33 1.4503 62.7 1.4603C61.31 1.4803 60.34 2.0803 59.79 3.2703C59.65 3.5903 59.57 3.8503 59.55 4.0603C59.45 4.4303 59.4 4.7903 59.41 5.1503V5.5103V5.5203Z" fill="white"/>
<path d="M74.61 7.23051L71.08 6.61051L70.4 10.4805C70.36 10.6805 70.26 10.8405 70.1 10.9505C69.93 11.0605 69.74 11.1005 69.53 11.0605C69.31 11.0205 69.14 10.9205 69.03 10.7605C68.92 10.6005 68.88 10.4205 68.91 10.2105L70.52 1.08051C70.56 0.880512 70.65 0.720512 70.82 0.610512C70.98 0.500512 71.17 0.460512 71.39 0.500512L75.66 1.25051C76.5 1.40051 77.16 1.81051 77.66 2.50051C78.16 3.18051 78.33 3.95051 78.18 4.78051C78.03 5.62051 77.61 6.27051 76.91 6.74051C76.21 7.21051 75.44 7.37051 74.61 7.22051V7.23051ZM75.41 2.72051L71.88 2.10051L71.34 5.18051L74.87 5.80051C75.32 5.88051 75.72 5.79051 76.06 5.52051C76.41 5.29051 76.63 4.96051 76.7 4.53051C76.78 4.10051 76.69 3.71051 76.44 3.36051C76.19 3.01051 75.85 2.80051 75.42 2.72051H75.41Z" fill="white"/>
<path d="M116.62 61.6304L125.12 61.4704L125.06 58.4204C125.06 58.2104 125.13 58.0204 125.27 57.8804C125.42 57.7304 125.59 57.6604 125.8 57.6504C126 57.6504 126.17 57.7204 126.32 57.8604C126.47 58.0004 126.54 58.1804 126.55 58.4004L126.69 66.0404C126.69 66.2504 126.63 66.4404 126.48 66.5804C126.34 66.7304 126.17 66.8004 125.97 66.8104C125.76 66.8104 125.59 66.7404 125.43 66.6004C125.28 66.4604 125.2 66.2804 125.2 66.0604L125.14 62.9804L116.64 63.1404C116.43 63.1404 116.25 63.0804 116.11 62.9404C115.97 62.8004 115.9 62.6304 115.9 62.4104C115.9 62.1904 115.96 62.0004 116.1 61.8504C116.24 61.7004 116.41 61.6304 116.61 61.6204L116.62 61.6304Z" fill="white"/>
<path d="M115.12 71.7102C115.37 70.1502 116.07 69.0402 117.21 68.3702C118.35 67.7002 119.71 67.5002 121.29 67.7502C122.87 68.0102 124.1 68.6302 124.97 69.6202C125.84 70.6102 126.14 71.8802 125.89 73.4402C125.72 74.5002 125.33 75.3602 124.72 76.0202C124.11 76.6802 123.38 77.1102 122.53 77.3202C121.68 77.5302 120.75 77.5502 119.73 77.3802C118.14 77.1202 116.91 76.4902 116.05 75.4902C115.19 74.4902 114.88 73.2302 115.13 71.7002L115.12 71.7102ZM121.01 69.2502C119.79 69.0502 118.8 69.1702 118.01 69.6202C117.23 70.0602 116.74 70.8702 116.55 72.0502C116.38 73.0802 116.6 73.9402 117.21 74.6102C117.81 75.2802 118.65 75.7102 119.71 75.8802C120.31 75.9802 120.86 76.0102 121.35 75.9802C121.84 75.9502 122.31 75.8402 122.75 75.6502C123.19 75.4702 123.55 75.1702 123.85 74.7502C124.14 74.3302 124.34 73.8102 124.44 73.1902C124.66 71.8202 124.23 70.7602 123.15 70.0202C122.86 69.8302 122.61 69.7102 122.42 69.6502C122.08 69.4902 121.73 69.3802 121.37 69.3202L121.01 69.2602V69.2502Z" fill="white"/>
<path d="M116.75 83.9207L117.96 80.5507L114.26 79.2207C114.07 79.1507 113.93 79.0207 113.85 78.8407C113.77 78.6607 113.76 78.4607 113.83 78.2607C113.91 78.0507 114.03 77.9007 114.21 77.8207C114.39 77.7407 114.58 77.7307 114.77 77.8007L123.49 80.9307C123.68 81.0007 123.82 81.1207 123.91 81.3007C123.99 81.4807 124 81.6707 123.92 81.8807L122.45 85.9607C122.16 86.7607 121.64 87.3407 120.88 87.7207C120.12 88.0907 119.34 88.1407 118.54 87.8507C117.74 87.5607 117.17 87.0407 116.83 86.2707C116.49 85.5007 116.46 84.7207 116.74 83.9207H116.75ZM121.06 85.4707L122.27 82.1007L119.33 81.0507L118.12 84.4207C117.96 84.8507 117.99 85.2507 118.19 85.6307C118.36 86.0207 118.65 86.2907 119.06 86.4307C119.47 86.5707 119.87 86.5607 120.26 86.3707C120.64 86.1807 120.91 85.8807 121.06 85.4707Z" fill="white"/>
<path d="M65.64 116.6L65.89 125.1L68.94 125.01C69.15 125.01 69.34 125.07 69.48 125.22C69.63 125.36 69.71 125.54 69.71 125.75C69.71 125.95 69.65 126.12 69.51 126.27C69.37 126.42 69.19 126.5 68.98 126.5L61.34 126.72C61.13 126.72 60.94 126.66 60.8 126.52C60.65 126.38 60.57 126.21 60.57 126.01C60.57 125.81 60.63 125.63 60.77 125.47C60.91 125.32 61.09 125.24 61.3 125.23L64.38 125.14L64.13 116.65C64.13 116.44 64.19 116.26 64.32 116.12C64.46 115.98 64.63 115.91 64.85 115.9C65.07 115.9 65.26 115.96 65.41 116.09C65.56 116.23 65.64 116.4 65.64 116.6Z" fill="white"/>
<path d="M55.53 115.22C57.09 115.45 58.21 116.14 58.89 117.27C59.57 118.4 59.79 119.76 59.55 121.35C59.31 122.94 58.7 124.17 57.72 125.05C56.74 125.93 55.47 126.25 53.91 126.01C52.85 125.85 51.99 125.47 51.32 124.86C50.65 124.25 50.22 123.53 50 122.69C49.78 121.85 49.75 120.91 49.91 119.89C50.15 118.29 50.77 117.06 51.76 116.19C52.75 115.32 54.01 115 55.54 115.23L55.53 115.22ZM58.06 121.08C58.24 119.86 58.11 118.86 57.66 118.09C57.21 117.31 56.4 116.84 55.21 116.66C54.18 116.5 53.33 116.73 52.66 117.34C51.99 117.95 51.58 118.79 51.42 119.85C51.33 120.45 51.3 121 51.34 121.49C51.38 121.99 51.49 122.45 51.68 122.89C51.87 123.33 52.17 123.69 52.59 123.98C53.01 124.27 53.53 124.46 54.16 124.56C55.54 124.77 56.59 124.33 57.32 123.24C57.51 122.95 57.63 122.7 57.69 122.5C57.85 122.16 57.95 121.8 58.01 121.44L58.06 121.08Z" fill="white"/>
<path d="M43.33 116.97L46.72 118.14L48.01 114.42C48.08 114.23 48.2 114.09 48.38 114C48.56 113.91 48.76 113.91 48.96 113.98C49.17 114.05 49.32 114.18 49.41 114.36C49.5 114.54 49.51 114.72 49.44 114.92L46.4 123.68C46.33 123.87 46.21 124.01 46.03 124.1C45.85 124.19 45.66 124.19 45.45 124.12L41.35 122.7C40.55 122.42 39.96 121.9 39.58 121.15C39.2 120.4 39.15 119.62 39.43 118.82C39.71 118.02 40.23 117.44 40.99 117.09C41.75 116.74 42.54 116.7 43.34 116.98L43.33 116.97ZM41.83 121.29L45.22 122.47L46.24 119.52L42.86 118.35C42.43 118.2 42.02 118.23 41.65 118.43C41.26 118.6 41 118.89 40.86 119.31C40.72 119.72 40.74 120.12 40.93 120.51C41.12 120.9 41.43 121.16 41.84 121.3L41.83 121.29Z" fill="white"/>
<path d="M10.85 72.5901L2.46002 73.9501L2.95002 76.9601C2.98002 77.1701 2.94002 77.3601 2.81002 77.5301C2.69002 77.7001 2.52002 77.8001 2.32002 77.8301C2.13002 77.8601 1.95002 77.8201 1.78002 77.7001C1.61002 77.5801 1.51002 77.4101 1.48002 77.2001L0.260021 69.6501C0.230021 69.4401 0.260021 69.2501 0.390021 69.0801C0.520021 68.9101 0.670021 68.8201 0.860021 68.7801C1.06002 68.7501 1.25002 68.7901 1.42002 68.9101C1.59002 69.0301 1.69002 69.1901 1.73002 69.4101L2.22002 72.4501L10.61 71.0901C10.82 71.0601 11.01 71.0901 11.16 71.2101C11.32 71.3301 11.41 71.4901 11.45 71.7001C11.49 71.9201 11.45 72.1101 11.33 72.2801C11.22 72.4501 11.06 72.5401 10.85 72.5801V72.5901Z" fill="white"/>
<path d="M10.91 62.38C10.88 63.96 10.35 65.16 9.32002 65.98C8.29002 66.8 6.97002 67.2 5.36002 67.17C3.75002 67.14 2.45002 66.7 1.46002 65.84C0.460017 64.99 -0.0299834 63.77 1.65786e-05 62.19C0.0200166 61.12 0.280017 60.21 0.800017 59.47C1.31002 58.73 1.97002 58.2 2.78002 57.87C3.59002 57.54 4.51002 57.39 5.55002 57.41C7.17002 57.44 8.47002 57.89 9.46002 58.75C10.45 59.62 10.94 60.83 10.91 62.37V62.38ZM5.43002 65.66C6.66002 65.68 7.63002 65.42 8.34002 64.87C9.05002 64.32 9.42002 63.45 9.44002 62.26C9.46002 61.21 9.12002 60.4 8.43002 59.82C7.74002 59.24 6.85002 58.94 5.78002 58.92C5.17002 58.91 4.63002 58.96 4.14002 59.06C3.65002 59.16 3.21002 59.34 2.80002 59.58C2.39002 59.82 2.08002 60.17 1.84002 60.63C1.61002 61.08 1.49002 61.63 1.48002 62.26C1.46002 63.65 2.03002 64.64 3.21002 65.22C3.53002 65.37 3.79002 65.46 3.99002 65.49C4.35002 65.6 4.71002 65.66 5.08002 65.66H5.44002H5.43002Z" fill="white"/>
<path d="M7.56 50.5298L6.84 54.0398L10.69 54.8298C10.89 54.8698 11.05 54.9798 11.15 55.1498C11.25 55.3198 11.29 55.5098 11.25 55.7198C11.21 55.9398 11.1 56.0998 10.93 56.2098C10.76 56.3198 10.58 56.3498 10.38 56.3098L1.3 54.4498C1.1 54.4098 0.94 54.3098 0.84 54.1398C0.73 53.9698 0.7 53.7798 0.74 53.5598L1.61 49.3098C1.78 48.4798 2.21 47.8198 2.91 47.3498C3.61 46.8698 4.37 46.7198 5.2 46.8898C6.03 47.0598 6.67 47.4998 7.12 48.2098C7.57 48.9198 7.71 49.6898 7.54 50.5298H7.56ZM3.08 49.6098L2.36 53.1198L5.42 53.7498L6.14 50.2398C6.23 49.7898 6.15 49.3898 5.9 49.0498C5.68 48.6898 5.35 48.4698 4.92 48.3798C4.49 48.2898 4.1 48.3698 3.74 48.6098C3.39 48.8498 3.16 49.1898 3.08 49.6198V49.6098Z" fill="white"/>
<path d="M105.34 34.5496C107.19 34.5496 108.69 33.0498 108.69 31.1996C108.69 29.3495 107.19 27.8496 105.34 27.8496C103.49 27.8496 101.99 29.3495 101.99 31.1996C101.99 33.0498 103.49 34.5496 105.34 34.5496Z" fill="white"/>
<path d="M23.93 102.43C25.7802 102.43 27.28 100.931 27.28 99.0805C27.28 97.2303 25.7802 95.7305 23.93 95.7305C22.0799 95.7305 20.58 97.2303 20.58 99.0805C20.58 100.931 22.0799 102.43 23.93 102.43Z" fill="white"/>
<path d="M93.23 112.77C95.0802 112.77 96.58 111.27 96.58 109.42C96.58 107.57 95.0802 106.07 93.23 106.07C91.3799 106.07 89.88 107.57 89.88 109.42C89.88 111.27 91.3799 112.77 93.23 112.77Z" fill="white"/>
<path d="M25.88 29.2996C27.7302 29.2996 29.23 27.7998 29.23 25.9496C29.23 24.0995 27.7302 22.5996 25.88 22.5996C24.0299 22.5996 22.53 24.0995 22.53 25.9496C22.53 27.7998 24.0299 29.2996 25.88 29.2996Z" fill="white"/>
</g>
<defs>
<clipPath id="clip0_132_162">
<rect width="126.69" height="126.72" fill="white"/>
</clipPath>
</defs>
</svg>
